<svg xmlns="http://www.w3.org/2000/svg" width="375px" height="120px" viewBox="0 0 375 120" enable-background="new 0 0 375 120">
<g id="logo">
	<path id="ellipse" fill="#ED6F23" d="M60.566,3.057c38.034-6.89,63.819,20.778,54.527,56.869
		c-8.53,33.133-41.036,53.088-67.506,53.087C21.52,113.013,2.01,94.474,2.011,68.999C2.011,42.286,24.655,9.562,60.566,3.057z"/>
	<linearGradient id="gradient_1_" gradientUnits="userSpaceOnUse" x1="59.5034" y1="113.0137" x2="59.5034" y2="2">
		<stop  offset="0.2611" style="stop-color:#FFFFFF;stop-opacity:0"/>
		<stop  offset="1" style="stop-color:#FFD16A;stop-opacity:0.6"/>
	</linearGradient>
	<path id="gradient" fill="url(#gradient_1_)" stroke="#FFFFFF" stroke-miterlimit="10" d="M60.566,3.057
		c38.034-6.89,63.819,20.778,54.527,56.869c-8.53,33.133-41.036,53.088-67.506,53.087C21.52,113.013,2.01,94.474,2.011,68.999
		C2.011,42.286,24.655,9.562,60.566,3.057z"/>
	<g id="a_shadow" display="none">
		<path display="inline" fill="#FFFFFF" d="M75.805,47.766c1.822-6.38,2.734-10.84,2.734-13.379c0-2.669-0.879-4.817-2.637-6.445
			c-1.758-1.626-4.428-2.441-8.008-2.441c-4.038,0-7.373,1.059-10.01,3.174c-2.637,2.116-4.541,5.388-5.713,9.814H23.266
			c1.692-8.853,6.363-16.016,14.014-21.484c7.649-5.469,18.57-8.203,32.764-8.203c9.244,0,16.519,1.172,21.826,3.516
			c5.306,2.344,9.131,5.437,11.475,9.277c2.344,3.842,3.516,7.683,3.516,11.523c0,3.452-0.358,6.934-1.074,10.449"/>
	</g>
	<g>
		<path fill="#FFFFFF" d="M87.816,113H60.277c-0.065-4.688,0.618-9.766,2.051-15.234c-3.842,4.818-8.464,8.676-13.867,11.572
			c-5.405,2.897-10.938,4.346-16.602,4.346c-8.269,0-14.975-2.474-20.117-7.422c-5.144-4.947-7.715-11.263-7.715-18.945
			c0-5.533,1.058-10.481,3.174-14.844c2.115-4.361,5.078-8.154,8.887-11.377s8.154-5.777,13.037-7.666
			c4.883-1.888,11.001-3.287,18.359-4.199c7.356-0.911,16.797-1.399,28.32-1.465c1.822-6.38,2.734-10.84,2.734-13.379
			c0-2.669-0.879-4.817-2.637-6.445c-1.758-1.626-4.428-2.441-8.008-2.441c-4.038,0-7.373,1.059-10.01,3.174
			c-2.637,2.116-4.541,5.388-5.713,9.814H23.266c1.692-8.853,6.363-16.016,14.014-21.484c7.649-5.469,18.57-8.203,32.764-8.203
			c9.244,0,16.519,1.172,21.826,3.516c5.306,2.344,9.131,5.437,11.475,9.277c2.344,3.842,3.516,7.683,3.516,11.523
			c0,3.452-0.358,6.934-1.074,10.449c-0.781,3.516-3.159,11.459-7.129,23.828c-3.972,12.436-6.738,22.168-8.301,29.199
			C89.313,101.151,88.466,106.62,87.816,113z M71.117,63.488c-7.813,0.131-13.818,0.603-18.018,1.416
			c-4.199,0.814-7.813,2.148-10.84,4.004s-5.454,4.265-7.275,7.227c-1.823,2.963-2.734,6.104-2.734,9.424
			c0,2.8,0.96,5.144,2.881,7.031c1.919,1.889,4.378,2.832,7.373,2.832c3.32,0,6.868-1.123,10.645-3.369
			c3.775-2.246,7.129-5.647,10.059-10.205C66.137,77.291,68.773,71.171,71.117,63.488z"/>
	</g>
</g>
<g id="text">
	<g>
		<g>
			<path fill="#7B7B7B" d="M135.02,89.383l2.544,6.865c0.264,0.768,0.552,1.68,0.744,2.376h0.048
				c0.216-0.696,0.456-1.585,0.744-2.425l2.304-6.816h2.232l-3.168,8.281c-1.512,3.984-2.544,6.024-3.984,7.272
				c-1.032,0.912-2.064,1.272-2.592,1.368l-0.528-1.776c0.528-0.168,1.224-0.504,1.848-1.032c0.576-0.456,1.296-1.271,1.776-2.352
				c0.096-0.217,0.168-0.385,0.168-0.504c0-0.121-0.048-0.289-0.144-0.553l-4.296-10.705H135.02z"/>
			<path fill="#7B7B7B" d="M157.629,95.096c0,4.297-2.977,6.168-5.785,6.168c-3.144,0-5.568-2.304-5.568-5.977
				c0-3.888,2.544-6.168,5.76-6.168C155.373,89.119,157.629,91.543,157.629,95.096z M148.412,95.215
				c0,2.545,1.464,4.465,3.528,4.465c2.016,0,3.528-1.896,3.528-4.512c0-1.969-0.984-4.465-3.48-4.465
				S148.412,93.008,148.412,95.215z"/>
			<path fill="#7B7B7B" d="M171.813,97.832c0,1.199,0.024,2.256,0.096,3.168h-1.872l-0.12-1.896h-0.048
				c-0.552,0.937-1.776,2.16-3.84,2.16c-1.824,0-4.008-1.008-4.008-5.088v-6.793h2.112v6.433c0,2.208,0.672,3.696,2.592,3.696
				c1.416,0,2.4-0.984,2.784-1.92c0.12-0.313,0.192-0.696,0.192-1.08v-7.129h2.112V97.832z"/>
			<path fill="#7B7B7B" d="M177.115,93.008c0-1.369-0.024-2.545-0.096-3.625h1.848l0.072,2.28h0.096
				c0.528-1.56,1.8-2.544,3.216-2.544c0.24,0,0.408,0.023,0.6,0.072v1.992c-0.216-0.049-0.432-0.072-0.72-0.072
				c-1.488,0-2.544,1.128-2.832,2.712c-0.048,0.288-0.096,0.624-0.096,0.984V101h-2.088V93.008z"/>
			<path fill="#7B7B7B" d="M204.164,95.096c0,4.297-2.977,6.168-5.785,6.168c-3.144,0-5.568-2.304-5.568-5.977
				c0-3.888,2.545-6.168,5.761-6.168C201.908,89.119,204.164,91.543,204.164,95.096z M194.947,95.215
				c0,2.545,1.464,4.465,3.528,4.465c2.017,0,3.528-1.896,3.528-4.512c0-1.969-0.984-4.465-3.48-4.465
				S194.947,93.008,194.947,95.215z"/>
			<path fill="#7B7B7B" d="M208.627,92.527c0-1.2-0.024-2.184-0.096-3.145h1.871l0.121,1.92h0.047
				c0.576-1.104,1.921-2.184,3.841-2.184c1.608,0,4.104,0.96,4.104,4.944V101h-2.112v-6.697c0-1.871-0.696-3.432-2.688-3.432
				c-1.393,0-2.473,0.984-2.832,2.16c-0.096,0.264-0.145,0.624-0.145,0.984V101h-2.111V92.527z"/>
			<path fill="#7B7B7B" d="M224.923,95.576c0.048,2.855,1.872,4.031,3.984,4.031c1.513,0,2.425-0.264,3.216-0.6l0.36,1.512
				c-0.744,0.336-2.017,0.744-3.864,0.744c-3.576,0-5.713-2.376-5.713-5.881c0-3.504,2.064-6.264,5.449-6.264
				c3.792,0,4.801,3.336,4.801,5.473c0,0.432-0.049,0.768-0.072,0.984H224.923z M231.115,94.063
				c0.024-1.345-0.552-3.433-2.928-3.433c-2.137,0-3.072,1.969-3.24,3.433H231.115z"/>
			<path fill="#7B7B7B" d="M244.171,98.84c0.624,0.408,1.728,0.84,2.784,0.84c1.536,0,2.256-0.768,2.256-1.729
				c0-1.008-0.6-1.56-2.16-2.136c-2.088-0.744-3.072-1.896-3.072-3.288c0-1.872,1.512-3.408,4.008-3.408
				c1.177,0,2.209,0.336,2.857,0.72l-0.528,1.536c-0.456-0.288-1.296-0.672-2.376-0.672c-1.248,0-1.945,0.721-1.945,1.584
				c0,0.961,0.697,1.393,2.209,1.969c2.016,0.768,3.049,1.775,3.049,3.504c0,2.04-1.585,3.504-4.346,3.504
				c-1.271,0-2.447-0.336-3.264-0.816L244.171,98.84z"/>
			<path fill="#7B7B7B" d="M258.307,86.599v2.784h3.024v1.608h-3.024v6.265c0,1.439,0.408,2.256,1.584,2.256
				c0.576,0,0.912-0.048,1.225-0.145l0.096,1.585c-0.408,0.168-1.057,0.312-1.872,0.312c-0.984,0-1.776-0.336-2.28-0.912
				c-0.6-0.623-0.816-1.656-0.816-3.023v-6.337h-1.8v-1.608h1.8v-2.137L258.307,86.599z"/>
			<path fill="#7B7B7B" d="M275.875,95.096c0,4.297-2.977,6.168-5.785,6.168c-3.144,0-5.568-2.304-5.568-5.977
				c0-3.888,2.545-6.168,5.761-6.168C273.619,89.119,275.875,91.543,275.875,95.096z M266.658,95.215
				c0,2.545,1.464,4.465,3.528,4.465c2.017,0,3.528-1.896,3.528-4.512c0-1.969-0.984-4.465-3.48-4.465
				S266.658,93.008,266.658,95.215z"/>
			<path fill="#7B7B7B" d="M280.338,93.176c0-1.488-0.048-2.688-0.096-3.793h1.896l0.096,1.992h0.048
				c0.864-1.416,2.232-2.256,4.128-2.256c2.809,0,4.921,2.376,4.921,5.904c0,4.176-2.544,6.24-5.28,6.24
				c-1.536,0-2.881-0.672-3.576-1.824h-0.049v6.313h-2.088V93.176z M282.426,96.271c0,0.313,0.049,0.6,0.097,0.864
				c0.384,1.464,1.655,2.472,3.168,2.472c2.232,0,3.528-1.824,3.528-4.488c0-2.328-1.225-4.32-3.456-4.32
				c-1.44,0-2.784,1.032-3.192,2.617c-0.072,0.264-0.145,0.575-0.145,0.863V96.271z"/>
			<path fill="#7B7B7B" d="M302.395,98.84c0.623,0.408,1.728,0.84,2.783,0.84c1.537,0,2.256-0.768,2.256-1.729
				c0-1.008-0.6-1.56-2.16-2.136c-2.088-0.744-3.072-1.896-3.072-3.288c0-1.872,1.513-3.408,4.009-3.408
				c1.177,0,2.208,0.336,2.856,0.72l-0.527,1.536c-0.457-0.288-1.297-0.672-2.377-0.672c-1.248,0-1.944,0.721-1.944,1.584
				c0,0.961,0.696,1.393,2.208,1.969c2.017,0.768,3.049,1.775,3.049,3.504c0,2.04-1.584,3.504-4.345,3.504
				c-1.272,0-2.448-0.336-3.265-0.816L302.395,98.84z"/>
			<path fill="#7B7B7B" d="M316.529,86.599v2.784h3.025v1.608h-3.025v6.265c0,1.439,0.408,2.256,1.584,2.256
				c0.576,0,0.912-0.048,1.225-0.145l0.096,1.585c-0.408,0.168-1.056,0.312-1.871,0.312c-0.984,0-1.777-0.336-2.281-0.912
				c-0.6-0.623-0.815-1.656-0.815-3.023v-6.337h-1.8v-1.608h1.8v-2.137L316.529,86.599z"/>
			<path fill="#7B7B7B" d="M334.098,95.096c0,4.297-2.977,6.168-5.784,6.168c-3.144,0-5.568-2.304-5.568-5.977
				c0-3.888,2.544-6.168,5.761-6.168C331.842,89.119,334.098,91.543,334.098,95.096z M324.881,95.215
				c0,2.545,1.465,4.465,3.529,4.465c2.016,0,3.527-1.896,3.527-4.512c0-1.969-0.984-4.465-3.48-4.465
				S324.881,93.008,324.881,95.215z"/>
			<path fill="#7B7B7B" d="M338.561,93.008c0-1.369-0.023-2.545-0.096-3.625h1.849l0.071,2.28h0.097
				c0.528-1.56,1.8-2.544,3.216-2.544c0.24,0,0.408,0.023,0.601,0.072v1.992c-0.216-0.049-0.433-0.072-0.72-0.072
				c-1.488,0-2.545,1.128-2.832,2.712c-0.049,0.288-0.097,0.624-0.097,0.984V101h-2.089V93.008z"/>
			<path fill="#7B7B7B" d="M349.146,95.576c0.048,2.855,1.872,4.031,3.984,4.031c1.513,0,2.425-0.264,3.216-0.6l0.36,1.512
				c-0.744,0.336-2.017,0.744-3.864,0.744c-3.576,0-5.713-2.376-5.713-5.881c0-3.504,2.064-6.264,5.449-6.264
				c3.792,0,4.801,3.336,4.801,5.473c0,0.432-0.049,0.768-0.072,0.984H349.146z M355.338,94.063
				c0.024-1.345-0.552-3.433-2.928-3.433c-2.137,0-3.072,1.969-3.24,3.433H355.338z"/>
		</g>
	</g>
	<g>
		<g>
			<path fill="#26323C" d="M156.306,62.456c-3.344,0-5.396-2.204-5.548-6.156c-1.824,4.408-5.396,6.765-10.108,6.765
				c-6.157,0-9.805-4.333-9.805-11.857c0-8.816,4.028-11.097,12.692-13.985c5.017-1.672,6.688-2.204,6.688-5.168v-3.952
				c0-3.572-2.052-5.016-6.308-5.016c-4.256,0-6.309,2.128-6.309,6.764v0.76h-5.624c0.152-8.74,3.952-12.541,12.617-12.541
				c8.056,0,11.705,3.496,11.705,11.477v25.005c0,2.204,0.76,3.116,2.508,3.116c0.304,0,0.608-0.076,0.988-0.152v4.561
				C158.51,62.305,157.37,62.456,156.306,62.456z M143.537,42.467c-4.56,1.596-6.688,2.964-6.688,8.665
				c0,4.256,1.976,6.688,5.396,6.688c4.789,0,8.133-3.876,8.133-10.413v-8.437C148.857,40.643,146.501,41.403,143.537,42.467z"/>
			<path fill="#26323C" d="M169.756,19.286h5.548v6.993c1.748-5.092,5.473-7.98,9.881-7.98c0.836,0,1.672,0,2.584,0.152v6.384
				c-0.684-0.38-1.444-0.532-2.356-0.532c-6.004,0-9.729,4.104-9.729,11.553V62h-5.929V19.286z"/>
			<path fill="#26323C" d="M201.752,65.952c0.228,3.421,2.584,5.244,6.992,5.244c5.928,0,8.284-3.724,8.284-12.084
				c0-0.532-0.076-1.216-0.076-2.28c-1.748,3.876-4.94,5.852-9.501,5.852c-8.74,0-12.92-7.752-12.92-23.333
				c0-13.984,4.484-21.053,13.377-21.053c4.56,0,7.828,2.204,9.12,6.004v-5.016h5.776v40.738c0,10.64-5.396,16.417-14.518,16.417
				c-7.371,0-12.464-4.333-12.464-10.262v-0.228H201.752z M208.82,57.44c6.308,0,8.208-5.701,8.208-17.253
				c0-11.249-2.28-16.797-8.36-16.797c-5.701,0-7.828,5.472-7.828,17.329C200.84,52.043,202.892,57.44,208.82,57.44z"/>
			<path fill="#26323C" d="M260.955,47.559c-0.076,10.109-4.788,15.582-13.148,15.582c-9.272,0-13.453-7.145-13.453-22.042
				c0-15.581,4.029-23.029,13.605-23.029c8.969,0,13.148,6.308,13.148,19.077c0,1.216,0,2.432-0.076,3.725H240.51v1.9
				c0,10.336,2.205,15.353,7.753,15.353c4.104,0,6.841-3.8,6.841-10.261v-0.304H260.955z M255.027,36.007v-1.14
				c0-7.905-2.356-11.857-6.916-11.857c-5.169,0-7.602,4.256-7.602,12.997H255.027z"/>
			<path fill="#26323C" d="M272.809,19.286h5.625v5.32c2.053-4.18,5.624-6.232,10.717-6.232c8.057,0,10.412,4.028,10.412,12.693V62
				h-6.004V30.61c0-4.636-1.9-6.917-6.004-6.917c-5.245,0-8.741,3.496-8.741,9.349V62h-6.005V19.286z"/>
			<path fill="#26323C" d="M324.717,57.516c0.38,0,0.836,0,1.367-0.076v5.244c-1.976,0.076-3.496,0.152-4.408,0.152
				c-5.623,0-8.359-2.204-8.359-6.764V24.226h-5.929v-4.94h5.929v-11.4h5.852v11.4h6.916v4.94h-6.916v28.958
				C319.168,57.06,320.309,57.516,324.717,57.516z"/>
			<path fill="#26323C" d="M348.579,18.07c10.413,0,15.049,7.296,15.049,22.573c0,15.353-4.56,22.498-15.049,22.498
				c-10.488,0-14.973-7.069-14.973-22.498C333.606,25.518,338.318,18.07,348.579,18.07z M348.579,58.048
				c6.46,0,8.589-5.472,8.589-17.405c0-11.857-2.053-17.329-8.589-17.329c-6.688,0-8.589,5.625-8.589,17.329
				C339.99,52.576,341.967,58.048,348.579,58.048z"/>
		</g>
	</g>
</g>
</svg>
