<svg xmlns="http://www.w3.org/2000/svg" width="250px" height="50px" viewBox="0 0 250 50" enable-background="new 0 0 250 50">
<g id="logo">
	<g id="yellow">
		<linearGradient id="SVGID_1_" gradientUnits="userSpaceOnUse" x1="22.4644" y1="29.2637" x2="22.4644" y2="46.089">
			<stop  offset="0" style="stop-color:#DDBE75"/>
			<stop  offset="1" style="stop-color:#F7D483"/>
		</linearGradient>
		<path fill="url(#SVGID_1_)" d="M22.464,46.282c-0.828,0-1.618-0.207-2.227-0.585L5.283,36.418
			c-0.746-0.463-1.174-1.157-1.174-1.904s0.428-1.441,1.174-1.904l14.955-9.28c0.608-0.377,1.399-0.585,2.227-0.585
			s1.618,0.208,2.227,0.585l14.955,9.28c0.746,0.463,1.174,1.157,1.174,1.904s-0.428,1.441-1.174,1.904l-14.955,9.279
			C24.083,46.075,23.292,46.282,22.464,46.282z"/>
		<linearGradient id="SVGID_2_" gradientUnits="userSpaceOnUse" x1="22.4644" y1="29.2637" x2="22.4644" y2="46.089">
			<stop  offset="0" style="stop-color:#DDBE75"/>
			<stop  offset="1" style="stop-color:#F7D483"/>
		</linearGradient>
		<path fill="url(#SVGID_2_)" d="M22.464,46.282c-0.828,0-1.618-0.207-2.227-0.585L5.283,36.418
			c-0.746-0.463-1.174-1.157-1.174-1.904s0.428-1.441,1.174-1.904l14.955-9.28c0.608-0.377,1.399-0.585,2.227-0.585
			s1.618,0.208,2.227,0.585l14.955,9.28c0.746,0.463,1.174,1.157,1.174,1.904s-0.428,1.441-1.174,1.904l-14.955,9.279
			C24.083,46.075,23.292,46.282,22.464,46.282z"/>
	</g>
	<g id="pink">
		<linearGradient id="SVGID_3_" gradientUnits="userSpaceOnUse" x1="22.4644" y1="20.2637" x2="22.4644" y2="37.089">
			<stop  offset="0" style="stop-color:#CD2C6E"/>
			<stop  offset="1" style="stop-color:#E7528E"/>
		</linearGradient>
		<path fill="url(#SVGID_3_)" d="M22.464,37.282c-0.828,0-1.618-0.207-2.227-0.585L5.283,27.418
			c-0.746-0.463-1.174-1.157-1.174-1.904s0.428-1.441,1.174-1.904l14.955-9.28c0.608-0.377,1.399-0.585,2.227-0.585
			s1.618,0.208,2.227,0.585l14.955,9.28c0.746,0.463,1.174,1.157,1.174,1.904s-0.428,1.441-1.174,1.904l-14.955,9.279
			C24.083,37.075,23.292,37.282,22.464,37.282z"/>
		<linearGradient id="SVGID_4_" gradientUnits="userSpaceOnUse" x1="22.4644" y1="20.2637" x2="22.4644" y2="37.089">
			<stop  offset="0" style="stop-color:#CD2C6E"/>
			<stop  offset="1" style="stop-color:#E7528E"/>
		</linearGradient>
		<path fill="url(#SVGID_4_)" d="M22.464,37.282c-0.828,0-1.618-0.207-2.227-0.585L5.283,27.418
			c-0.746-0.463-1.174-1.157-1.174-1.904s0.428-1.441,1.174-1.904l14.955-9.28c0.608-0.377,1.399-0.585,2.227-0.585
			s1.618,0.208,2.227,0.585l14.955,9.28c0.746,0.463,1.174,1.157,1.174,1.904s-0.428,1.441-1.174,1.904l-14.955,9.279
			C24.083,37.075,23.292,37.282,22.464,37.282z"/>
	</g>
	<g id="green">
		<linearGradient id="SVGID_5_" gradientUnits="userSpaceOnUse" x1="22.4644" y1="3.8735" x2="22.4644" y2="27.2864">
			<stop  offset="0" style="stop-color:#468E8E"/>
			<stop  offset="1" style="stop-color:#5AA8A8"/>
		</linearGradient>
		<path fill="url(#SVGID_5_)" d="M22.464,27.282c-0.828,0-1.618-0.207-2.227-0.585L5.283,17.418
			c-0.746-0.463-1.174-1.157-1.174-1.904s0.428-1.441,1.174-1.904l14.955-9.28c0.608-0.377,1.399-0.585,2.227-0.585
			s1.618,0.208,2.227,0.585l14.955,9.28c0.746,0.463,1.174,1.157,1.174,1.904s-0.428,1.441-1.174,1.904l-14.955,9.279
			C24.083,27.075,23.292,27.282,22.464,27.282z"/>
		<linearGradient id="SVGID_6_" gradientUnits="userSpaceOnUse" x1="22.4644" y1="3.8735" x2="22.4644" y2="27.2864">
			<stop  offset="0" style="stop-color:#468E8E"/>
			<stop  offset="1" style="stop-color:#5AA8A8"/>
		</linearGradient>
		<path fill="url(#SVGID_6_)" d="M22.464,27.282c-0.828,0-1.618-0.207-2.227-0.585L5.283,17.418
			c-0.746-0.463-1.174-1.157-1.174-1.904s0.428-1.441,1.174-1.904l14.955-9.28c0.608-0.377,1.399-0.585,2.227-0.585
			s1.618,0.208,2.227,0.585l14.955,9.28c0.746,0.463,1.174,1.157,1.174,1.904s-0.428,1.441-1.174,1.904l-14.955,9.279
			C24.083,27.075,23.292,27.282,22.464,27.282z"/>
	</g>
</g>
<g id="text">
	<path d="M68.105,32.457c-1.094,1.146-2.256,2.005-3.486,2.578s-2.536,0.859-3.916,0.859c-2.136,0-3.802-0.557-5-1.67
		c-1.198-1.113-1.797-2.653-1.797-4.619c0-1.9,0.589-3.392,1.768-4.473c1.178-1.081,2.972-1.777,5.381-2.09
		c0.612-0.065,1.438-0.156,2.48-0.273c1.784-0.182,2.877-0.358,3.281-0.527c0.403-0.156,0.67-0.361,0.801-0.615
		c0.13-0.254,0.195-0.804,0.195-1.65c0-1.067-0.391-1.868-1.172-2.402c-0.781-0.534-1.96-0.801-3.535-0.801
		c-1.628,0-2.855,0.326-3.682,0.977c-0.827,0.651-1.24,1.615-1.24,2.891h-3.32v-0.156c0-2.109,0.742-3.776,2.227-5
		c1.484-1.224,3.528-1.836,6.133-1.836c2.799,0,4.86,0.524,6.182,1.572c1.321,1.048,1.982,2.686,1.982,4.912v10.469
		c0,0.898,0.098,1.478,0.293,1.738s0.547,0.391,1.055,0.391c0.104,0,0.231-0.01,0.381-0.029c0.149-0.02,0.329-0.049,0.537-0.088
		v2.715c-0.43,0.117-0.804,0.198-1.123,0.244c-0.319,0.046-0.622,0.068-0.908,0.068c-1.172,0-2.051-0.254-2.637-0.762
		s-0.879-1.276-0.879-2.305V32.457z M67.773,24.605c-0.938,0.508-2.546,0.905-4.824,1.191c-0.808,0.104-1.413,0.189-1.816,0.254
		c-1.276,0.209-2.194,0.586-2.754,1.133c-0.56,0.547-0.84,1.342-0.84,2.383c0,1.042,0.325,1.843,0.977,2.402
		c0.651,0.56,1.582,0.84,2.793,0.84c1.888,0,3.438-0.476,4.648-1.426s1.816-2.168,1.816-3.652V24.605z"/>
	<path d="M76.895,35.25V14.332h3.398v3.75c0.56-1.406,1.318-2.458,2.275-3.154c0.957-0.696,2.132-1.045,3.525-1.045
		c0.26,0,0.449,0.003,0.566,0.01c0.117,0.007,0.234,0.023,0.352,0.049v3.711c-0.091-0.013-0.195-0.022-0.313-0.029
		c-0.117-0.006-0.293-0.01-0.527-0.01c-1.875,0-3.304,0.511-4.287,1.533c-0.983,1.022-1.475,2.51-1.475,4.463V35.25H76.895z"/>
	<path d="M105.215,32.691c-0.82,1.081-1.781,1.892-2.881,2.432c-1.101,0.54-2.354,0.811-3.76,0.811
		c-2.826,0-5.098-1.025-6.816-3.076s-2.578-4.762-2.578-8.135c0-3.333,0.862-6.012,2.588-8.037
		c1.725-2.024,4.007-3.037,6.846-3.037c1.38,0,2.594,0.264,3.643,0.791c1.048,0.527,2.021,1.371,2.92,2.529v-2.637h3.438v20.469
		c0,3.229-0.769,5.563-2.305,7.002c-1.537,1.438-4.017,2.158-7.441,2.158c-2.773,0-4.941-0.54-6.504-1.621
		s-2.344-2.578-2.344-4.492v-0.156h3.438v0.078c0,1.081,0.459,1.892,1.377,2.432s2.301,0.811,4.15,0.811
		c2.213,0,3.805-0.423,4.775-1.27c0.97-0.847,1.455-2.239,1.455-4.18V32.691z M99.023,16.813c-1.979,0-3.503,0.69-4.57,2.07
		c-1.068,1.38-1.602,3.353-1.602,5.918c0,2.514,0.547,4.47,1.641,5.869s2.617,2.1,4.57,2.1c2.135,0,3.714-0.642,4.736-1.924
		c1.022-1.282,1.533-3.252,1.533-5.908c0-2.682-0.531-4.707-1.592-6.074C102.679,17.496,101.106,16.813,99.023,16.813z"/>
	<path d="M128.066,28.492h3.477c-0.378,2.305-1.38,4.121-3.008,5.449s-3.679,1.992-6.152,1.992c-2.904,0-5.195-0.977-6.875-2.93
		s-2.52-4.615-2.52-7.988c0-3.567,0.833-6.354,2.5-8.359c1.667-2.005,3.965-3.008,6.895-3.008c3.008,0,5.335,0.925,6.982,2.773
		c1.647,1.849,2.471,4.46,2.471,7.832c0,0.43-0.003,0.749-0.01,0.957c-0.007,0.208-0.022,0.41-0.049,0.605H116.68
		c0.039,2.201,0.586,3.903,1.641,5.107s2.52,1.807,4.395,1.807c1.433,0,2.614-0.368,3.545-1.104S127.793,29.847,128.066,28.492z
		 M116.66,22.887h11.484c-0.013-1.953-0.508-3.46-1.484-4.521c-0.977-1.061-2.363-1.592-4.16-1.592
		c-1.732,0-3.096,0.521-4.092,1.563C117.412,19.378,116.829,20.895,116.66,22.887z"/>
	<path d="M149.785,35.25V22.379c0-2.057-0.315-3.479-0.947-4.268c-0.632-0.788-1.716-1.182-3.252-1.182
		c-1.966,0-3.493,0.557-4.58,1.67s-1.631,2.692-1.631,4.736V35.25h-3.516V14.332h3.359v3.047c0.808-1.211,1.765-2.109,2.871-2.695
		s2.39-0.879,3.848-0.879c1.575,0,2.903,0.238,3.984,0.713c1.081,0.476,1.914,1.188,2.5,2.139c0.325,0.508,0.56,1.104,0.703,1.787
		s0.215,1.768,0.215,3.252v0.996V35.25H149.785z"/>
	<path d="M162.734,29.977c0,0.938,0.134,1.563,0.4,1.875s0.759,0.469,1.475,0.469c0.208,0,0.459-0.007,0.752-0.02
		s0.674-0.039,1.143-0.078v2.988c-0.586,0.104-1.11,0.183-1.572,0.234s-0.876,0.078-1.24,0.078c-1.653,0-2.813-0.319-3.477-0.957
		s-0.996-1.771-0.996-3.398V17.125h-3.125v-2.793h3.125v-5.84h3.516v5.84h3.77v2.793h-3.77V29.977z"/>
	<path d="M168.77,24.762c0-3.502,0.876-6.23,2.627-8.184s4.209-2.93,7.373-2.93c3.177,0,5.645,0.974,7.402,2.92
		c1.758,1.947,2.637,4.678,2.637,8.193s-0.876,6.25-2.627,8.203s-4.209,2.93-7.373,2.93c-3.177,0-5.645-0.974-7.402-2.92
		S168.77,28.291,168.77,24.762z M172.363,24.762c0,2.592,0.557,4.573,1.67,5.947s2.705,2.061,4.775,2.061
		c2.058,0,3.633-0.687,4.727-2.061s1.641-3.355,1.641-5.947c0-2.578-0.547-4.554-1.641-5.928c-1.094-1.374-2.669-2.061-4.727-2.061
		c-2.083,0-3.679,0.684-4.785,2.051S172.363,22.171,172.363,24.762z"/>
	<path d="M193.887,35.25V18.004h-3.027V14.02h3.027v-1.973c0-1.979,0.511-3.434,1.533-4.365c1.022-0.931,2.634-1.396,4.834-1.396
		c0.403,0,0.83,0.01,1.279,0.029s0.928,0.056,1.436,0.107v4.512h-1.484c-0.847,0-1.403,0.111-1.67,0.332
		c-0.267,0.222-0.4,0.645-0.4,1.27v1.484h3.555v3.984h-3.516V35.25H193.887z"/>
	<path d="M206.055,35.25V6.48h5.684v28.77H206.055z"/>
	<path d="M229.023,32.613c-0.716,1.106-1.653,1.95-2.813,2.529s-2.507,0.869-4.043,0.869c-2.058,0-3.643-0.586-4.756-1.758
		s-1.67-2.839-1.67-5c0-2.005,0.557-3.535,1.67-4.59s2.952-1.777,5.518-2.168c0.586-0.091,1.354-0.195,2.305-0.313
		c2.409-0.313,3.613-1.009,3.613-2.09c0-0.859-0.267-1.475-0.801-1.846s-1.426-0.557-2.676-0.557c-1.146,0-2.024,0.228-2.637,0.684
		c-0.612,0.456-0.918,1.107-0.918,1.953v0.313h-5.313V20.25c0-2.174,0.769-3.883,2.305-5.127c1.536-1.243,3.659-1.865,6.367-1.865
		c2.969,0,5.244,0.515,6.826,1.543c1.582,1.029,2.373,2.513,2.373,4.453v12.07c0,0.886,0.091,1.546,0.273,1.982
		s0.488,0.765,0.918,0.986v0.957h-5.918c-0.195-0.364-0.345-0.769-0.449-1.211S229.036,33.121,229.023,32.613z M228.926,24.801
		c-0.925,0.43-1.989,0.775-3.193,1.035c-1.204,0.261-1.826,0.397-1.865,0.41c-1.003,0.287-1.702,0.645-2.1,1.074
		s-0.596,1.022-0.596,1.777c0,0.781,0.254,1.403,0.762,1.865s1.191,0.693,2.051,0.693c1.536,0,2.744-0.433,3.623-1.299
		s1.318-2.047,1.318-3.545V24.801z"/>
	<path d="M248.77,35.406c-0.521,0.013-1.143,0.036-1.865,0.068s-1.182,0.049-1.377,0.049c-2.175,0-3.662-0.407-4.463-1.221
		s-1.201-2.419-1.201-4.814V18.004h-2.813V14.02h2.813V8.219h5.625v5.801h3.281v3.984h-3.281v11.758
		c0,0.56,0.124,0.928,0.371,1.104s0.755,0.264,1.523,0.264h1.387V35.406z"/>
</g>
</svg>
