<?xml version="1.0" encoding="UTF-8"?>
<svg width="220px" height="35px" viewBox="0 0 220 35" version="1.1" xmlns="http://www.w3.org/2000/svg" xmlns:xlink="http://www.w3.org/1999/xlink">
    <!-- Generator: Sketch 42 (36781) - http://www.bohemiancoding.com/sketch -->
    <title>logo outlines</title>
    <desc>Created with Sketch.</desc>
    <defs>
        <path d="M49.8950195,16.9589844 C48.1974199,16.9817709 46.9356324,17.2609023 46.1096191,17.7963867 C45.2836059,18.3318712 44.8706055,19.1407823 44.8706055,20.2231445 C44.8706055,21.0092813 45.0785298,21.6188129 45.4943848,22.0517578 C45.9102397,22.4847027 46.4941369,22.7011719 47.2460938,22.7011719 C48.0208372,22.7011719 48.6588517,22.3992543 49.1601562,21.7954102 C49.6614608,21.191566 49.9121094,20.4339238 49.9121094,19.5224609 L49.8950195,16.9589844 Z M50.0146484,22.2226562 L49.8266602,22.2226562 C49.1886361,22.9860064 48.4708699,23.5556622 47.6733398,23.9316406 C46.8758098,24.3076191 45.9871468,24.4956055 45.0073242,24.4956055 C43.7996359,24.4956055 42.8853384,24.1879914 42.2644043,23.5727539 C41.6434702,22.9575165 41.3330078,22.0631569 41.3330078,20.8896484 C41.3330078,19.5452407 42.0108982,18.4315637 43.3666992,17.548584 C44.7225003,16.6656043 46.4371641,16.2241211 48.5107422,16.2241211 L49.9121094,16.2241211 L49.9121094,14.0878906 C49.9121094,12.7206963 49.755454,11.8548195 49.4421387,11.4902344 C49.1288233,11.1256492 48.5620158,10.9433594 47.7416992,10.9433594 C46.978349,10.9433594 46.3431829,11.0430491 45.8361816,11.2424316 C45.3291804,11.4418141 45.0756836,11.6668282 45.0756836,11.9174805 C45.0756836,11.9516603 45.1753734,12.1396467 45.3747559,12.4814453 C45.5741384,12.8232439 45.6738281,13.1764305 45.6738281,13.5410156 C45.6738281,13.9967471 45.5228693,14.3670233 45.2209473,14.6518555 C44.9190252,14.9366876 44.5231144,15.0791016 44.0332031,15.0791016 C43.4977187,15.0791016 43.0875665,14.9366876 42.8027344,14.6518555 C42.5179022,14.3670233 42.3754883,13.9625677 42.3754883,13.4384766 C42.3754883,12.4928338 42.893875,11.6953157 43.9306641,11.0458984 C44.9674531,10.3964811 46.2833579,10.0717773 47.878418,10.0717773 C48.8696339,10.0717773 49.7725382,10.160074 50.5871582,10.3366699 C51.4017782,10.5132659 52.0255512,10.749673 52.4584961,11.0458984 C52.8458678,11.307944 53.1107578,11.624103 53.2531738,11.9943848 C53.3955899,12.3646666 53.4667969,13.1137639 53.4667969,14.2416992 L53.4667969,22.1030273 C53.4667969,22.2967132 53.5664866,22.4733065 53.7658691,22.6328125 C53.9652516,22.7923185 54.1845691,22.8720703 54.4238281,22.8720703 C54.5719408,22.8720703 54.7428376,22.8037116 54.9365234,22.6669922 C55.1302093,22.5302728 55.3181957,22.3422864 55.5004883,22.1030273 L55.9277344,22.5644531 C55.5973291,23.1682973 55.1330596,23.6411116 54.5349121,23.9829102 C53.9367646,24.3247087 53.2788122,24.4956055 52.5610352,24.4956055 C51.8888313,24.4956055 51.34481,24.3104673 50.9289551,23.9401855 C50.5131001,23.5699037 50.2083343,22.9973997 50.0146484,22.2226562 Z M57.8930664,24 L57.8930664,23.1967773 L60.2685547,23.1967773 L60.2685547,11.1826172 L57.8930664,11.1826172 L57.8930664,10.3793945 L60.1318359,10.3793945 C60.5647808,10.3793945 61.1144986,10.35376 61.7810059,10.3024902 C62.4475131,10.2512204 63.151038,10.1743169 63.8916016,10.0717773 L63.9086914,13.4726562 L64.1821289,13.4726562 C64.7631865,12.3333276 65.4467734,11.4816923 66.2329102,10.9177246 C67.0190469,10.3537569 67.9134064,10.0717773 68.9160156,10.0717773 C69.6907591,10.0717773 70.3088356,10.2740051 70.7702637,10.6784668 C71.2316918,11.0829285 71.4624023,11.6269497 71.4624023,12.3105469 C71.4624023,12.8916045 71.3000505,13.3587222 70.9753418,13.7119141 C70.6506331,14.0651059 70.220543,14.2416992 69.6850586,14.2416992 C69.0356413,14.2416992 68.5457373,14.1049818 68.215332,13.831543 C67.8849267,13.5581041 67.7197266,13.1536485 67.7197266,12.6181641 L67.7197266,12.3105469 C67.7197266,12.0598946 67.6912438,11.880453 67.6342773,11.7722168 C67.5773109,11.6639806 67.4918625,11.6098633 67.3779297,11.6098633 C66.5690064,11.6098633 65.7999711,12.1367949 65.0708008,13.1906738 C64.3416305,14.2445528 63.9770508,15.3981057 63.9770508,16.6513672 L63.9770508,23.1967773 L67.0532227,23.1967773 L67.0532227,24 L57.8930664,24 Z M75.9912109,25.4697266 C75.7405586,25.7887386 75.549724,26.181801 75.4187012,26.6489258 C75.2876784,27.1160505 75.222168,27.6344373 75.222168,28.2041016 C75.222168,29.2067107 75.5924442,29.9928357 76.3330078,30.5625 C77.0735714,31.1321643 78.0932552,31.4169922 79.3920898,31.4169922 C80.9757566,31.4169922 82.3286891,30.975509 83.4509277,30.0925293 C84.5731664,29.2095496 85.1342773,28.1357485 85.1342773,26.8710938 C85.1342773,26.3014294 84.9519875,25.8798842 84.5874023,25.6064453 C84.2228172,25.3330064 83.6702511,25.1962891 82.9296875,25.1962891 L82.5366211,25.1962891 L78.9306641,25.4013672 C78.8623043,25.4013672 78.5034212,25.409912 77.8540039,25.427002 C77.2045866,25.4440919 76.5836618,25.4583333 75.9912109,25.4697266 Z M77.0336914,13.0795898 L77.0336914,16.4804688 C77.0336914,17.3463585 77.1704088,17.9416488 77.4438477,18.2663574 C77.7172865,18.5910661 78.2242802,18.753418 78.9648438,18.753418 C79.7054073,18.753418 80.2180975,18.5882178 80.5029297,18.2578125 C80.7877618,17.9274072 80.9301758,17.3349652 80.9301758,16.4804688 L80.9301758,13.0795898 C80.9301758,12.2250934 80.7877618,11.6326514 80.5029297,11.3022461 C80.2180975,10.9718408 79.7054073,10.8066406 78.9648438,10.8066406 C78.2242802,10.8066406 77.7172865,10.9689925 77.4438477,11.2937012 C77.1704088,11.6184098 77.0336914,12.2137001 77.0336914,13.0795898 Z M75.1196289,25.4697266 L75.1196289,25.1279297 C74.4360317,24.9114573 73.9091002,24.5440293 73.5388184,24.0256348 C73.1685366,23.5072402 72.9833984,22.8777706 72.9833984,22.137207 C72.9833984,21.1915643 73.2169573,20.4396187 73.684082,19.8813477 C74.1512068,19.3230766 74.8974558,18.9243176 75.9228516,18.6850586 L75.9228516,18.3261719 C75.182288,17.8476539 74.641115,17.3121774 74.2993164,16.7197266 C73.9575178,16.1272757 73.7866211,15.4379922 73.7866211,14.6518555 C73.7866211,13.398594 74.2850699,12.3219446 75.2819824,11.421875 C76.278895,10.5218054 77.49511,10.0717773 78.9306641,10.0717773 C79.7281941,10.0717773 80.4516569,10.2027982 81.1010742,10.4648438 C81.7504915,10.7268893 82.3600232,11.1313449 82.9296875,11.6782227 C83.3626324,11.0971651 83.7784811,10.6841646 84.1772461,10.439209 C84.5760111,10.1942533 85.0089495,10.0717773 85.4760742,10.0717773 C85.9887721,10.0717773 86.3846828,10.1885568 86.6638184,10.4221191 C86.9429539,10.6556815 87.0825195,10.9832336 87.0825195,11.4047852 C87.0825195,11.8263367 86.9856781,12.1396474 86.7919922,12.3447266 C86.5983063,12.5498057 86.3134784,12.6523438 85.9375,12.6523438 C85.5273417,12.6523438 85.1883965,12.4785987 84.9206543,12.1311035 C84.6529121,11.7836083 84.4905602,11.6098633 84.4335938,11.6098633 C84.2626945,11.6098633 84.0804046,11.6725254 83.8867188,11.7978516 C83.6930329,11.9231777 83.5335293,12.0826813 83.4082031,12.2763672 C83.7272151,12.7548852 83.9522292,13.1935201 84.083252,13.5922852 C84.2142747,13.9910502 84.2797852,14.4524713 84.2797852,14.9765625 C84.2797852,16.3551501 83.7756398,17.4517375 82.767334,18.2663574 C81.7590282,19.0809774 80.3890061,19.4882812 78.6572266,19.4882812 C78.4863273,19.4882812 78.2157408,19.4825847 77.845459,19.4711914 C77.4751772,19.4597981 77.1931976,19.4541016 76.9995117,19.4541016 C76.0880488,19.4541016 75.3816757,19.5879707 74.8803711,19.8557129 C74.3790665,20.1234551 74.128418,20.5022762 74.128418,20.9921875 C74.128418,21.3795592 74.2622871,21.6558423 74.5300293,21.8210449 C74.7977715,21.9862476 75.2506479,22.0688477 75.8886719,22.0688477 C76.3671899,22.0688477 76.726073,22.0659994 76.965332,22.0603027 C77.204591,22.0546061 77.4324533,22.0460613 77.6489258,22.034668 L80.6054688,21.8979492 C80.9016942,21.8865559 81.1779772,21.8780111 81.4343262,21.8723145 C81.6906751,21.8666178 81.9270823,21.8637695 82.1435547,21.8637695 C83.750008,21.8637695 84.8693816,22.1571422 85.501709,22.7438965 C86.1340364,23.3306507 86.4501953,24.3417897 86.4501953,25.7773438 C86.4501953,27.7142024 85.7495187,29.2779075 84.3481445,30.4685059 C82.9467703,31.6591043 81.1067822,32.2543945 78.828125,32.2543945 C77.1191321,32.2543945 75.7063858,31.8869666 74.5898438,31.1520996 C73.4733017,30.4172327 72.9150391,29.5143283 72.9150391,28.4433594 C72.9150391,27.7939421 73.077391,27.2442243 73.4020996,26.7941895 C73.7268083,26.3441547 74.2993123,25.9026714 75.1196289,25.4697266 Z M100.515137,19.625 L101.352539,19.625 C100.919594,21.2314533 100.167649,22.4448201 99.0966797,23.2651367 C98.0257108,24.0854533 96.658537,24.4956055 94.9951172,24.4956055 C93.0810451,24.4956055 91.4831607,23.8319565 90.201416,22.5046387 C88.9196713,21.1773208 88.2788086,19.5509536 88.2788086,17.6254883 C88.2788086,15.5633035 88.9339127,13.7888258 90.2441406,12.302002 C91.5543685,10.8151781 93.1380115,10.0717773 94.9951172,10.0717773 C96.818043,10.0717773 98.3333273,10.6357365 99.5410156,11.7636719 C100.748704,12.8916072 101.352539,14.31005 101.352539,16.019043 L101.352539,16.3266602 L92.3974609,16.3266602 L92.3974609,20.496582 C92.3974609,21.4536181 92.6765923,22.2198051 93.2348633,22.795166 C93.7931343,23.370527 94.5393833,23.6582031 95.4736328,23.6582031 C96.6471413,23.6582031 97.6896113,23.2936234 98.6010742,22.5644531 C99.5125371,21.8352828 100.150552,20.8554749 100.515137,19.625 Z M97.4389648,15.3525391 L97.4389648,13.4726562 C97.4389648,12.5953732 97.2338888,11.9488139 96.8237305,11.532959 C96.4135722,11.117104 95.7812543,10.9091797 94.9267578,10.9091797 C94.0836546,10.9091797 93.4513367,11.1228006 93.0297852,11.5500488 C92.6082336,11.9772971 92.3974609,12.6181598 92.3974609,13.4726562 L92.3974609,15.3525391 L97.4389648,15.3525391 Z M111.794434,24 L103.48877,24 L103.48877,23.1967773 L105.864258,23.1967773 L105.864258,11.1826172 L103.48877,11.1826172 L103.48877,10.3793945 L105.727539,10.3793945 C106.171877,10.3793945 106.724443,10.35376 107.385254,10.3024902 C108.046065,10.2512204 108.752438,10.1743169 109.504395,10.0717773 L109.504395,13.2163086 L109.829102,13.2163086 C110.489912,12.1339464 111.219072,11.3392766 112.016602,10.8322754 C112.814132,10.3252742 113.731277,10.0717773 114.768066,10.0717773 C116.192227,10.0717773 117.266028,10.4107225 117.989502,11.088623 C118.712976,11.7665236 119.074707,12.7776625 119.074707,14.1220703 L119.074707,23.1967773 L121.245117,23.1967773 L121.245117,24 L113.22998,24 L113.22998,23.1967773 L115.314941,23.1967773 L115.314941,13.4726562 C115.314941,12.6295531 115.192465,12.0627456 114.94751,11.7722168 C114.702554,11.481688 114.266767,11.3364258 113.640137,11.3364258 C112.626134,11.3364258 111.697595,11.880447 110.854492,12.9685059 C110.011389,14.0565647 109.589844,15.2841729 109.589844,16.6513672 L109.589844,23.1967773 L111.794434,23.1967773 L111.794434,24 Z M125.124512,11.1826172 L122.851562,11.1826172 L122.851562,10.3793945 L125.227051,10.3793945 L125.227051,6.63671875 L126.45752,6.63671875 C126.730958,6.63671875 127.052814,6.60538768 127.423096,6.54272461 C127.793378,6.48006154 128.217771,6.38606833 128.696289,6.26074219 L128.696289,10.3793945 L132.028809,10.3793945 L132.028809,11.1826172 L128.696289,11.1826172 L128.696289,21.2314453 C128.696289,21.8808626 128.815917,22.3422838 129.055176,22.6157227 C129.294435,22.8891615 129.687497,23.0258789 130.234375,23.0258789 C130.644533,23.0258789 131.026203,22.8692236 131.379395,22.5559082 C131.732586,22.2425928 132.006021,21.8125027 132.199707,21.265625 L132.866211,21.5219727 C132.672525,22.4220423 132.176925,23.1426568 131.379395,23.6838379 C130.581865,24.225019 129.619146,24.4956055 128.491211,24.4956055 C127.272129,24.4956055 126.406253,24.2705914 125.893555,23.8205566 C125.380857,23.3705218 125.124512,22.5929417 125.124512,21.487793 L125.124512,11.1826172 Z M139.104004,15.1132812 L139.104004,19.4199219 C139.104004,20.9466222 139.343259,22.0346647 139.821777,22.684082 C140.300295,23.3334993 141.08642,23.6582031 142.180176,23.6582031 C143.273931,23.6582031 144.060056,23.3334993 144.538574,22.684082 C145.017092,22.0346647 145.256348,20.9466222 145.256348,19.4199219 L145.256348,15.1132812 C145.256348,13.5751876 145.017092,12.4842968 144.538574,11.8405762 C144.060056,11.1968555 143.273931,10.875 142.180176,10.875 C141.08642,10.875 140.300295,11.1968555 139.821777,11.8405762 C139.343259,12.4842968 139.104004,13.5751876 139.104004,15.1132812 Z M134.968262,17.2836914 C134.968262,15.3810126 135.688876,13.7033764 137.130127,12.2507324 C138.571378,10.7980884 140.25471,10.0717773 142.180176,10.0717773 C144.105641,10.0717773 145.788974,10.7980884 147.230225,12.2507324 C148.671475,13.7033764 149.39209,15.3810126 149.39209,17.2836914 C149.39209,19.1863702 148.671475,20.8640064 147.230225,22.3166504 C145.788974,23.7692944 144.105641,24.4956055 142.180176,24.4956055 C140.25471,24.4956055 138.571378,23.7692944 137.130127,22.3166504 C135.688876,20.8640064 134.968262,19.1863702 134.968262,17.2836914 Z" id="path-1"></path>
        <filter x="-50%" y="-50%" width="200%" height="200%" filterUnits="objectBoundingBox" id="filter-2">
            <feOffset dx="0" dy="1" in="SourceAlpha" result="shadowOffsetOuter1"></feOffset>
            <feGaussianBlur stdDeviation="0.5" in="shadowOffsetOuter1" result="shadowBlurOuter1"></feGaussianBlur>
            <feColorMatrix values="0 0 0 0 0   0 0 0 0 0   0 0 0 0 0  0 0 0 0.15 0" type="matrix" in="shadowBlurOuter1"></feColorMatrix>
        </filter>
        <path d="M150.871582,31.1860352 L150.871582,30.3828125 L153.212891,30.3828125 L153.212891,10.1826172 L150.871582,10.1826172 L150.871582,9.37939453 L153.178711,9.37939453 C153.623049,9.37939453 154.178463,9.35376002 154.844971,9.30249023 C155.511478,9.25122045 156.215003,9.17431692 156.955566,9.07177734 L156.972656,11.1738281 L157.416992,11.1738281 C157.952477,10.4674444 158.564857,9.94051281 159.25415,9.59301758 C159.943444,9.24552235 160.721024,9.07177734 161.586914,9.07177734 C163.352873,9.07177734 164.851068,9.76106082 166.081543,11.1396484 C167.312018,12.5182361 167.927246,14.2328999 167.927246,16.2836914 C167.927246,18.3572695 167.300625,20.0776299 166.047363,21.4448242 C164.794102,22.8120186 163.238942,23.4956055 161.381836,23.4956055 C160.550126,23.4956055 159.823815,23.3304053 159.202881,23 C158.581947,22.6695947 157.975263,22.1341183 157.382812,21.3935547 L156.972656,21.3935547 L156.972656,30.3828125 L159.313965,30.3828125 L159.313965,31.1860352 L150.871582,31.1860352 Z M156.972656,14.5576172 L156.972656,18.2832031 C156.972656,19.4111385 157.399898,20.4393671 158.254395,21.3679199 C159.108891,22.2964727 160.043126,22.7607422 161.057129,22.7607422 C162.036952,22.7607422 162.731932,22.4645212 163.14209,21.8720703 C163.552248,21.2796194 163.757324,20.1972735 163.757324,18.625 L163.757324,13.6518555 C163.757324,12.3074477 163.56649,11.3418812 163.184814,10.755127 C162.803139,10.1683727 162.190759,9.875 161.347656,9.875 C160.162754,9.875 159.137374,10.3221798 158.271484,11.2165527 C157.405595,12.1109257 156.972656,13.2246027 156.972656,14.5576172 Z M181.75293,10.1826172 L179.54834,10.1826172 L179.54834,9.37939453 L181.71875,9.37939453 C182.174481,9.37939453 182.735592,9.35376002 183.4021,9.30249023 C184.068607,9.25122045 184.777828,9.17431692 185.529785,9.07177734 L185.529785,22.1625977 L187.836914,22.1625977 L187.836914,23 L185.598145,23 C185.017087,23 184.413252,23.0227862 183.786621,23.0683594 C183.15999,23.1139325 182.504886,23.1822912 181.821289,23.2734375 L181.821289,20.1630859 L181.513672,20.1630859 C180.852861,21.2454481 180.123702,22.0401179 179.326172,22.5471191 C178.528642,23.0541204 177.611496,23.3076172 176.574707,23.3076172 C175.139153,23.3076172 174.0682,22.9743686 173.361816,22.3078613 C172.655433,21.6413541 172.302246,20.6359117 172.302246,19.2915039 L172.302246,19.1889648 C172.27946,18.995279 172.268066,18.8186857 172.268066,18.6591797 L172.268066,10.1826172 L170.029297,10.1826172 L170.029297,9.37939453 L172.233887,9.37939453 C172.666832,9.37939453 173.216549,9.35376002 173.883057,9.30249023 C174.549564,9.25122045 175.258785,9.17431692 176.010742,9.07177734 L176.010742,19.1206055 C176.010742,20.2257542 176.127522,20.9919412 176.361084,21.4191895 C176.594646,21.8464377 177.00195,22.0600586 177.583008,22.0600586 C178.676763,22.0600586 179.645178,21.5245822 180.488281,20.4536133 C181.331384,19.3826444 181.75293,18.1407948 181.75293,16.7280273 L181.75293,10.1826172 Z M189.853516,23 L189.853516,22.1967773 L192.229004,22.1967773 L192.229004,10.1826172 L189.853516,10.1826172 L189.853516,9.37939453 L192.092285,9.37939453 C192.52523,9.37939453 193.074948,9.35376002 193.741455,9.30249023 C194.407962,9.25122045 195.111487,9.17431692 195.852051,9.07177734 L195.869141,12.4726562 L196.142578,12.4726562 C196.723636,11.3333276 197.407223,10.4816923 198.193359,9.91772461 C198.979496,9.35375695 199.873856,9.07177734 200.876465,9.07177734 C201.651208,9.07177734 202.269285,9.27400514 202.730713,9.6784668 C203.192141,10.0829285 203.422852,10.6269497 203.422852,11.3105469 C203.422852,11.8916045 203.2605,12.3587222 202.935791,12.7119141 C202.611082,13.0651059 202.180992,13.2416992 201.645508,13.2416992 C200.996091,13.2416992 200.506187,13.1049818 200.175781,12.831543 C199.845376,12.5581041 199.680176,12.1536485 199.680176,11.6181641 L199.680176,11.3105469 C199.680176,11.0598946 199.651693,10.880453 199.594727,10.7722168 C199.53776,10.6639806 199.452312,10.6098633 199.338379,10.6098633 C198.529456,10.6098633 197.76042,11.1367949 197.03125,12.1906738 C196.30208,13.2445528 195.9375,14.3981057 195.9375,15.6513672 L195.9375,22.1967773 L199.013672,22.1967773 L199.013672,23 L189.853516,23 Z M217.556152,18.625 L218.393555,18.625 C217.96061,20.2314533 217.208664,21.4448201 216.137695,22.2651367 C215.066726,23.0854533 213.699553,23.4956055 212.036133,23.4956055 C210.122061,23.4956055 208.524176,22.8319565 207.242432,21.5046387 C205.960687,20.1773208 205.319824,18.5509536 205.319824,16.6254883 C205.319824,14.5633035 205.974928,12.7888258 207.285156,11.302002 C208.595384,9.81517811 210.179027,9.07177734 212.036133,9.07177734 C213.859059,9.07177734 215.374343,9.63573655 216.582031,10.7636719 C217.78972,11.8916072 218.393555,13.31005 218.393555,15.019043 L218.393555,15.3266602 L209.438477,15.3266602 L209.438477,19.496582 C209.438477,20.4536181 209.717608,21.2198051 210.275879,21.795166 C210.83415,22.370527 211.580399,22.6582031 212.514648,22.6582031 C213.688157,22.6582031 214.730627,22.2936234 215.64209,21.5644531 C216.553553,20.8352828 217.191567,19.8554749 217.556152,18.625 Z M214.47998,14.3525391 L214.47998,12.4726562 C214.47998,11.5953732 214.274904,10.9488139 213.864746,10.532959 C213.454588,10.117104 212.82227,9.90917969 211.967773,9.90917969 C211.12467,9.90917969 210.492352,10.1228006 210.070801,10.5500488 C209.649249,10.9772971 209.438477,11.6181598 209.438477,12.4726562 L209.438477,14.3525391 L214.47998,14.3525391 Z" id="path-3"></path>
        <filter x="-50%" y="-50%" width="200%" height="200%" filterUnits="objectBoundingBox" id="filter-4">
            <feOffset dx="0" dy="1" in="SourceAlpha" result="shadowOffsetOuter1"></feOffset>
            <feGaussianBlur stdDeviation="0.5" in="shadowOffsetOuter1" result="shadowBlurOuter1"></feGaussianBlur>
            <feColorMatrix values="0 0 0 0 0   0 0 0 0 0   0 0 0 0 0  0 0 0 0.15 0" type="matrix" in="shadowBlurOuter1"></feColorMatrix>
        </filter>
    </defs>
    <g id="Page-1" stroke="none" stroke-width="1" fill="none" fill-rule="evenodd">
        <g id="logo-outlines">
            <g id="argento">
                <!-- <use fill="black" fill-opacity="1" filter="url(#filter-2)" xlink:href="#path-1"></use> -->
                <use fill="#000000" fill-rule="evenodd" xlink:href="#path-1"></use>
            </g>
            <g id="pure">
                <!-- <use fill="black" fill-opacity="1" filter="url(#filter-4)" xlink:href="#path-3"></use> -->
                <use fill="#A4A4A4" fill-rule="evenodd" xlink:href="#path-3"></use>
            </g>
            <g id="oval">
                <circle id="outer-oval" fill="#a5205f" cx="17" cy="17" r="17"></circle>
                <circle id="inner-oval" stroke="#df5a99" stroke-width="0.5" cx="17" cy="17" r="12"></circle>
                <g id="two-dots" transform="translate(12.000000, 15.000000)" fill="#df5a99">
                    <circle id="Oval-Copy-2" cx="8" cy="2" r="2"></circle>
                    <circle id="Oval-Copy-3" cx="2" cy="2" r="2"></circle>
                </g>
            </g>
        </g>
    </g>
</svg>