<?xml version="1.0" standalone="no"?>
<!DOCTYPE svg PUBLIC "-//W3C//DTD SVG 20010904//EN"
 "http://www.w3.org/TR/2001/REC-SVG-20010904/DTD/svg10.dtd">
<svg version="1.0" xmlns="http://www.w3.org/2000/svg"
 width="227.000000pt" height="227.000000pt" viewBox="0 0 227.000000 227.000000"
 preserveAspectRatio="xMidYMid meet">
<metadata>
Created by potrace 1.11, written by Peter Selinger 2001-2013
</metadata>
<g transform="translate(0.000000,227.000000) scale(0.100000,-0.100000)"
fill="#000000" stroke="none">
<path d="M1717 2154 c-1 -1 -33 -5 -72 -9 -100 -9 -144 -14 -195 -20 -25 -3
-70 -7 -100 -10 -69 -6 -157 -15 -190 -20 -14 -2 -54 -6 -90 -10 -36 -4 -76
-8 -90 -10 -14 -2 -59 -7 -100 -10 -41 -3 -86 -7 -100 -10 -22 -4 -83 -10
-189 -20 -20 -2 -58 -6 -86 -9 -98 -11 -180 -19 -205 -21 -23 -1 -25 -5 -24
-46 1 -24 4 -62 7 -84 4 -22 9 -69 12 -105 3 -36 8 -83 10 -105 7 -60 14 -123
20 -190 3 -33 7 -73 10 -90 2 -16 7 -61 10 -100 4 -38 8 -81 10 -94 3 -14 7
-54 10 -90 3 -36 8 -82 10 -101 3 -19 7 -60 10 -90 9 -92 15 -153 20 -190 3
-19 7 -62 10 -95 9 -89 18 -180 29 -270 2 -16 7 -68 12 -115 4 -47 9 -88 10
-92 1 -5 2 -17 3 -29 1 -19 5 -20 56 -15 30 3 81 8 113 11 31 3 98 10 147 16
50 5 110 12 135 14 53 5 131 14 180 20 19 3 64 7 99 10 35 3 82 8 105 10 22 3
61 7 86 10 135 13 177 18 193 21 9 1 53 6 96 9 44 3 88 7 98 9 10 2 54 7 98
12 44 4 83 9 88 10 4 1 14 2 22 3 12 1 15 11 10 49 -2 26 -7 70 -10 97 -14
146 -26 263 -30 290 -4 31 -12 102 -20 190 -3 28 -7 64 -9 80 -3 17 -8 64 -11
105 -3 41 -8 86 -10 100 -2 14 -6 54 -10 90 -3 36 -8 81 -10 100 -3 19 -7 60
-10 90 -3 30 -7 73 -10 95 -5 54 -15 153 -20 190 -2 17 -7 64 -10 105 -4 41
-9 82 -10 91 -2 9 -6 52 -10 95 -11 135 -11 135 -56 132 -22 -1 -41 -3 -42 -4z
m-609 -408 c103 -30 159 -74 193 -151 48 -109 8 -250 -106 -372 -24 -26 -45
-51 -45 -54 0 -7 109 -101 225 -193 l59 -48 9 28 c10 36 15 296 7 387 -5 66
-5 67 20 68 14 0 34 2 45 4 11 2 46 6 78 8 l57 5 1 -37 c0 -20 3 -47 6 -61 8
-39 8 -298 0 -365 -4 -33 -14 -86 -22 -118 -8 -32 -15 -59 -15 -61 0 -1 30
-27 67 -57 178 -143 284 -239 266 -240 -10 -1 -27 -3 -38 -4 -61 -7 -192 -18
-208 -17 -10 0 -53 30 -96 66 -44 36 -82 66 -86 66 -4 0 -23 -18 -43 -41 -96
-109 -263 -179 -429 -179 -265 0 -469 194 -450 428 7 95 60 194 156 293 l76
79 -30 32 c-142 155 -176 318 -88 434 64 86 266 137 391 100z"/>
<path d="M988 1579 c-75 -12 -120 -55 -111 -109 4 -30 41 -85 88 -130 l34 -33
35 39 c47 51 76 114 76 163 0 58 -42 82 -122 70z"/>
<path d="M916 973 c-74 -74 -107 -129 -107 -184 -1 -58 12 -90 56 -132 118
-114 346 -97 459 35 l35 40 -132 104 c-73 58 -141 112 -152 122 -50 43 -88 72
-95 72 -4 0 -33 -25 -64 -57z"/>
</g>
</svg>
