<?xml version="1.0" encoding="UTF-8"?>
<svg width="295px" height="29px" viewBox="0 0 295 29" version="1.1" xmlns="http://www.w3.org/2000/svg" xmlns:xlink="http://www.w3.org/1999/xlink">
    <!-- Generator: Sketch 43.2 (39069) - http://www.bohemiancoding.com/sketch -->
    <title>Group 15</title>
    <desc>Created with Sketch.</desc>
    <defs></defs>
    <g id="Home" stroke="none" stroke-width="1" fill="none" fill-rule="evenodd">
        <g id="Home-v1" transform="translate(-466.000000, -31.000000)">
            <g id="Group-43" transform="translate(-12.000000, -114.000000)">
                <g id="Group-15" transform="translate(478.000000, 145.000000)">
                    <path d="M50.5512695,28 L48.7866211,28 L56.5180664,9.515625 L58.4350586,9.515625 L66.090332,28 L64.300293,28 L62.027832,22.5917969 L52.7094727,22.5917969 L50.5512695,28 Z M53.1538086,21.3984375 L61.5961914,21.3984375 L58.4731445,13.171875 L57.4702148,10.3662109 L56.4926758,13.171875 L53.1538086,21.3984375 Z M84.8549805,28 L82.925293,22.71875 C82.6967762,22.1009084 82.4682629,21.5867534 82.2397461,21.1762695 C82.0112293,20.7657857 81.7403987,20.4378267 81.4272461,20.1923828 C81.1140935,19.9469389 80.7417014,19.773438 80.3100586,19.671875 C79.8784158,19.570312 79.345218,19.5195312 78.7104492,19.5195312 L74.9272461,19.5195312 L74.9272461,28 L73.2768555,28 L73.2768555,9.515625 L77.6186523,9.515625 C78.1180038,9.515625 78.6617809,9.52408846 79.25,9.54101562 C79.8382191,9.55794279 80.4285452,9.61295526 81.0209961,9.70605469 C81.613447,9.79915411 82.1847303,9.94091702 82.7348633,10.1313477 C83.2849962,10.3217783 83.7737609,10.5926089 84.2011719,10.9438477 C84.6285829,11.2950864 84.9713529,11.7394179 85.2294922,12.2768555 C85.4876315,12.8142931 85.6166992,13.4723268 85.6166992,14.2509766 C85.6166992,14.8688182 85.510906,15.433754 85.2993164,15.9458008 C85.0877268,16.4578476 84.7872741,16.9064108 84.3979492,17.2915039 C84.0086244,17.676597 83.5431342,17.9982083 83.0014648,18.2563477 C82.4597955,18.514487 81.85889,18.6985672 81.1987305,18.8085938 C81.1818033,18.8593753 81.1733398,18.8932291 81.1733398,18.9101562 C81.1733398,18.9186198 81.1754557,18.9249674 81.1796875,18.9291992 C81.1839193,18.933431 81.1860352,18.9397786 81.1860352,18.9482422 C81.7954132,19.0667324 82.2884096,19.2719712 82.6650391,19.5639648 C83.0416685,19.8559585 83.378091,20.2558568 83.6743164,20.7636719 C83.9705418,21.2714869 84.2604152,21.9020145 84.5439453,22.6552734 C84.8274754,23.4085324 85.1808247,24.3056589 85.6040039,25.3466797 L86.6196289,28 L84.8549805,28 Z M74.9780273,18.0595703 L78.6977539,18.0595703 C79.3155955,18.0595703 79.931312,18.0066737 80.5449219,17.9008789 C81.1585317,17.7950841 81.7107723,17.6067722 82.2016602,17.3359375 C82.692548,17.0651028 83.0924464,16.6990583 83.4013672,16.237793 C83.710288,15.7765276 83.8647461,15.1904332 83.8647461,14.4794922 C83.8647461,13.7685511 83.7377942,13.1866885 83.4838867,12.7338867 C83.2299792,12.281085 82.8766299,11.9235039 82.4238281,11.6611328 C81.9710264,11.3987617 81.4357127,11.2167974 80.8178711,11.1152344 C80.2000295,11.0136714 79.5271846,10.9628906 78.7993164,10.9628906 L74.9780273,10.9628906 L74.9780273,18.0595703 Z M102.388184,20.078125 L102.388184,18.6308594 L108.723145,18.6308594 L108.672363,27.0478516 C107.724442,27.5048851 106.721522,27.8264965 105.663574,28.0126953 C104.605626,28.1988942 103.530767,28.2919922 102.438965,28.2919922 C100.932447,28.2919922 99.6058,28.0719423 98.4589844,27.6318359 C97.3121687,27.1917296 96.3515664,26.5696655 95.5771484,25.765625 C94.8027305,24.9615845 94.218752,23.9988663 93.8251953,22.8774414 C93.4316387,21.7560165 93.2348633,20.5097725 93.2348633,19.1386719 C93.2348633,17.7675713 93.442218,16.4790099 93.8569336,15.2729492 C94.2716492,14.0668885 94.8704388,13.0110722 95.6533203,12.1054688 C96.4362018,11.1998653 97.3946883,10.4847031 98.5288086,9.95996094 C99.6629288,9.43521873 100.953606,9.17285156 102.400879,9.17285156 C103.086429,9.17285156 103.744463,9.23209576 104.375,9.35058594 C105.005537,9.46907611 105.581052,9.64680871 106.101562,9.88378906 C106.622073,10.1207694 107.072752,10.4169904 107.453613,10.7724609 C107.834475,11.1279315 108.113769,11.5426409 108.291504,12.0166016 L107.580566,12.9052734 C107.368977,12.5159486 107.087567,12.1795262 106.736328,11.8959961 C106.385089,11.612466 105.978843,11.3776051 105.517578,11.1914062 C105.056313,11.0052074 104.550621,10.8655604 104.000488,10.7724609 C103.450355,10.6793615 102.870609,10.6328125 102.26123,10.6328125 C101.059402,10.6328125 100.001469,10.8655576 99.0874023,11.3310547 C98.1733353,11.7965518 97.4095083,12.4143842 96.7958984,13.1845703 C96.1822886,13.9547565 95.7189143,14.8413036 95.4057617,15.8442383 C95.0926091,16.847173 94.9360352,17.8818306 94.9360352,18.9482422 C94.9360352,20.1246804 95.094725,21.1974235 95.4121094,22.1665039 C95.7294938,23.1355843 96.209795,23.9671189 96.8530273,24.6611328 C97.4962597,25.3551467 98.3002881,25.8925762 99.2651367,26.2734375 C100.229985,26.6542988 101.359857,26.8447266 102.654785,26.8447266 C103.475753,26.8447266 104.258623,26.7812506 105.003418,26.6542969 C105.748213,26.5273431 106.442217,26.311525 107.085449,26.0068359 L107.11084,20.078125 L102.388184,20.078125 Z M128.846191,26.5527344 L128.846191,28 L117.80127,28 L117.80127,9.515625 L128.490723,9.515625 L128.490723,10.9628906 L119.477051,10.9628906 L119.477051,17.7929688 L127.98291,17.7929688 L127.98291,19.2275391 L119.45166,19.2275391 L119.45166,26.5527344 L128.846191,26.5527344 Z M138.749512,11.2167969 L138.749512,28 L137.086426,28 L137.086426,9.515625 L139.333496,9.515625 L148.931152,23.8994141 L150.632324,26.7050781 L150.632324,9.515625 L152.181152,9.515625 L152.181152,28 L149.895996,28 L140.260254,13.6289062 L138.749512,11.2167969 Z M165.359863,28 L165.359863,10.9628906 L159.304199,10.9628906 L159.304199,9.515625 L173.116699,9.515625 L173.116699,10.9628906 L167.07373,10.9628906 L167.07373,28 L165.359863,28 Z M196.058105,18.7324219 C196.058105,20.1289132 195.852867,21.4132428 195.442383,22.5854492 C195.031899,23.7576556 194.437341,24.7669229 193.658691,25.6132812 C192.880042,26.4596396 191.930019,27.1176734 190.808594,27.5874023 C189.687169,28.0571313 188.419766,28.2919922 187.006348,28.2919922 C185.61832,28.2919922 184.372076,28.0677106 183.267578,27.6191406 C182.16308,27.1705707 181.225753,26.5315797 180.455566,25.7021484 C179.68538,24.8727172 179.095054,23.8719134 178.68457,22.699707 C178.274086,21.5275006 178.068848,20.2177807 178.068848,18.7705078 C178.068848,17.3740165 178.274086,16.0896869 178.68457,14.9174805 C179.095054,13.7452741 179.689612,12.733891 180.468262,11.8833008 C181.246911,11.0327106 182.19905,10.3683292 183.324707,9.89013672 C184.450364,9.41194422 185.728346,9.17285156 187.158691,9.17285156 C188.529792,9.17285156 189.765457,9.39924904 190.865723,9.85205078 C191.965989,10.3048525 192.901201,10.9480753 193.671387,11.7817383 C194.441573,12.6154013 195.031899,13.6204368 195.442383,14.796875 C195.852867,15.9733132 196.058105,17.285149 196.058105,18.7324219 Z M179.808105,18.7958984 C179.808105,19.9215551 179.962564,20.9731396 180.271484,21.9506836 C180.580405,22.9282275 181.039548,23.778805 181.648926,24.5024414 C182.258304,25.2260778 183.011552,25.7973612 183.908691,26.2163086 C184.805831,26.635256 185.842605,26.8447266 187.019043,26.8447266 C188.212408,26.8447266 189.259761,26.6373719 190.161133,26.2226562 C191.062505,25.8079406 191.813636,25.2345414 192.414551,24.5024414 C193.015465,23.7703414 193.466144,22.9070688 193.766602,21.9125977 C194.067059,20.9181265 194.217285,19.8369199 194.217285,18.6689453 C194.217285,17.5432886 194.069175,16.4895882 193.772949,15.5078125 C193.476724,14.5260368 193.030276,13.6733435 192.433594,12.949707 C191.836911,12.2260706 191.090011,11.6569031 190.192871,11.2421875 C189.295731,10.8274719 188.246263,10.6201172 187.044434,10.6201172 C185.859532,10.6201172 184.816411,10.8443988 183.915039,11.2929688 C183.013667,11.7415387 182.258304,12.3403283 181.648926,13.0893555 C181.039548,13.8383827 180.580405,14.7080029 180.271484,15.6982422 C179.962564,16.6884815 179.808105,17.7210233 179.808105,18.7958984 Z M217.438965,11.2167969 L217.438965,28 L215.775879,28 L215.775879,9.515625 L218.022949,9.515625 L227.620605,23.8994141 L229.321777,26.7050781 L229.321777,9.515625 L230.870605,9.515625 L230.870605,28 L228.585449,28 L218.949707,13.6289062 L217.438965,11.2167969 Z M251.234863,26.5527344 L251.234863,28 L240.189941,28 L240.189941,9.515625 L250.879395,9.515625 L250.879395,10.9628906 L241.865723,10.9628906 L241.865723,17.7929688 L250.371582,17.7929688 L250.371582,19.2275391 L241.840332,19.2275391 L241.840332,26.5527344 L251.234863,26.5527344 Z M272.17041,9.515625 L273.77002,9.515625 L273.706543,21.0429688 C273.698079,22.177089 273.543621,23.1927038 273.243164,24.0898438 C272.942707,24.9869837 272.492028,25.7465789 271.891113,26.3686523 C271.290199,26.9907258 270.539067,27.4667952 269.637695,27.796875 C268.736324,28.1269548 267.684739,28.2919922 266.48291,28.2919922 C265.323399,28.2919922 264.320479,28.1438817 263.474121,27.8476562 C262.627763,27.5514308 261.918948,27.1197945 261.347656,26.5527344 C260.776364,25.9856742 260.334149,25.2959025 260.020996,24.4833984 C259.707843,23.6708944 259.513184,22.7441458 259.437012,21.703125 C259.428548,21.6608071 259.424316,21.6248374 259.424316,21.5952148 L259.424316,21.2460938 L259.500488,9.515625 L261.087402,9.515625 L261.049316,21.1064453 C261.049316,22.0035852 261.157225,22.8054978 261.373047,23.512207 C261.588868,24.2189163 261.923175,24.8198217 262.375977,25.3149414 C262.828778,25.8100611 263.406409,26.1888008 264.108887,26.4511719 C264.811364,26.713543 265.645015,26.8447266 266.609863,26.8447266 C267.507003,26.8447266 268.298336,26.7389333 268.983887,26.5273438 C269.669437,26.3157542 270.24072,25.9856793 270.697754,25.5371094 C271.154787,25.0885394 271.499673,24.5087926 271.732422,23.7978516 C271.96517,23.0869105 272.085775,22.2321013 272.094238,21.2333984 L272.17041,9.515625 Z M294.146973,26.5527344 L294.146973,28 L283.102051,28 L283.102051,9.515625 L293.791504,9.515625 L293.791504,10.9628906 L284.777832,10.9628906 L284.777832,17.7929688 L293.283691,17.7929688 L293.283691,19.2275391 L284.752441,19.2275391 L284.752441,26.5527344 L294.146973,26.5527344 Z" id="ARGENTO-NEUE" fill="#FFFFFF"></path>
                    <g id="Group-33" stroke="#FFFFFF" stroke-width="5">
                        <path d="M4.63088425,25.5 L18.375,4.55658553 L32.1191157,25.5 L31.7041116,25.5 L20.671875,25.5 L4.63088425,25.5 Z" id="Triangle-2"></path>
                        <path d="M28.9418819,25.5 L16.8823421,25.5 L23.8373148,14.9080232 L28.9418819,25.5 Z" id="Triangle-2-Copy"></path>
                    </g>
                </g>
            </g>
        </g>
    </g>
</svg>