<?xml version="1.0" encoding="UTF-8" standalone="no"?>
<svg
   xmlns:dc="http://purl.org/dc/elements/1.1/"
   xmlns:cc="http://creativecommons.org/ns#"
   xmlns:rdf="http://www.w3.org/1999/02/22-rdf-syntax-ns#"
   xmlns:svg="http://www.w3.org/2000/svg"
   xmlns="http://www.w3.org/2000/svg"
   id="svg4551"
   version="1.1"
   viewBox="0 0 92.604167 25.135417"
   height="95"
   width="350">
  <defs
     id="defs4545" />
  <metadata
     id="metadata4548">
    <rdf:RDF>
      <cc:Work
         rdf:about="">
        <dc:format>image/svg+xml</dc:format>
        <dc:type
           rdf:resource="http://purl.org/dc/dcmitype/StillImage" />
        <dc:title></dc:title>
      </cc:Work>
    </rdf:RDF>
  </metadata>
  <g
     transform="translate(-68.035714,-79.852682)"
     id="layer1">
    <g
       transform="translate(17.945765,29.600508)"
       id="g4543"
       style="display:inline">
      <g
         id="text24"
         style="font-style:normal;font-variant:normal;font-weight:bold;font-stretch:normal;font-size:12.69999981px;line-height:1.25;letter-spacing:0px;word-spacing:0px;display:inline;fill:#eeeeee;fill-opacity:1;stroke:#0a416d;stroke-width:0.26499999;stroke-miterlimit:4;stroke-dasharray:none;stroke-opacity:1"
         aria-label="online">
        <path
           id="path5173"
           style="font-style:normal;font-variant:normal;font-weight:bold;font-stretch:normal;font-size:12.69999981px;line-height:0px;letter-spacing:0px;fill:#eeeeee;fill-opacity:1;stroke:#0a416d;stroke-width:0.26499999;stroke-miterlimit:4;stroke-dasharray:none;stroke-opacity:1"
           d="m 85.792105,61.378427 v 2.015381 q 0,1.11001 -0.111621,1.630908 -0.111621,0.514697 -0.47749,0.967383 -0.365869,0.446484 -0.942578,0.663525 -0.570508,0.21084 -1.314649,0.21084 -0.830957,0 -1.407666,-0.179834 -0.576709,-0.186035 -0.89917,-0.551904 -0.31626,-0.37207 -0.452685,-0.892969 Q 80.04982,64.714658 80.04982,63.66666 v -2.108399 q 0,-1.147217 0.248047,-1.792138 0.248047,-0.644922 0.892969,-1.035596 0.644921,-0.390674 1.649511,-0.390674 0.84336,0 1.444873,0.254248 0.607715,0.248047 0.936377,0.651123 0.328662,0.403076 0.446485,0.830957 0.124023,0.427881 0.124023,1.302246 z M 83.286832,60.75831 q 0,-0.632519 -0.06821,-0.79375 -0.06821,-0.167432 -0.291455,-0.167432 -0.223243,0 -0.297657,0.167432 -0.07441,0.161231 -0.07441,0.79375 v 3.714502 q 0,0.58291 0.07441,0.762744 0.07441,0.173633 0.291455,0.173633 0.223243,0 0.291456,-0.161231 0.07441,-0.16123 0.07441,-0.694531 z" />
        <path
           id="path5175"
           style="font-style:normal;font-variant:normal;font-weight:bold;font-stretch:normal;font-size:12.69999981px;line-height:0px;letter-spacing:0px;fill:#eeeeee;fill-opacity:1;stroke:#0a416d;stroke-width:0.26499999;stroke-miterlimit:4;stroke-dasharray:none;stroke-opacity:1"
           d="m 89.171744,58.488681 -0.04341,0.756543 q 0.272852,-0.452685 0.663526,-0.675928 0.396875,-0.229443 0.911572,-0.229443 0.644922,0 1.054199,0.303857 0.409278,0.303858 0.5271,0.768946 0.117822,0.458886 0.117822,1.53789 v 5.76709 h -2.505273 v -5.698877 q 0,-0.84956 -0.05581,-1.035595 -0.05581,-0.186036 -0.310058,-0.186036 -0.266651,0 -0.334864,0.217041 -0.06821,0.21084 -0.06821,1.141016 v 5.562451 h -2.505273 v -8.228955 z" />
        <path
           id="path5177"
           style="font-style:normal;font-variant:normal;font-weight:bold;font-stretch:normal;font-size:12.69999981px;line-height:0px;letter-spacing:0px;fill:#eeeeee;fill-opacity:1;stroke:#0a416d;stroke-width:0.26499999;stroke-miterlimit:4;stroke-dasharray:none;stroke-opacity:1"
           d="M 95.850406,56.677939 V 66.717636 H 93.270718 V 56.677939 Z" />
        <path
           id="path5179"
           style="font-style:normal;font-variant:normal;font-weight:bold;font-stretch:normal;font-size:12.69999981px;line-height:0px;letter-spacing:0px;fill:#eeeeee;fill-opacity:1;stroke:#0a416d;stroke-width:0.26499999;stroke-miterlimit:4;stroke-dasharray:none;stroke-opacity:1"
           d="m 99.323062,56.677939 v 1.308447 h -2.579687 v -1.308447 z m 0,1.810742 v 8.228955 h -2.579687 v -8.228955 z" />
        <path
           id="path5181"
           style="font-style:normal;font-variant:normal;font-weight:bold;font-stretch:normal;font-size:12.69999981px;line-height:0px;letter-spacing:0px;fill:#eeeeee;fill-opacity:1;stroke:#0a416d;stroke-width:0.26499999;stroke-miterlimit:4;stroke-dasharray:none;stroke-opacity:1"
           d="m 102.76471,58.488681 -0.0434,0.756543 q 0.27286,-0.452685 0.66353,-0.675928 0.39687,-0.229443 0.91157,-0.229443 0.64492,0 1.0542,0.303857 0.40928,0.303858 0.5271,0.768946 0.11782,0.458886 0.11782,1.53789 v 5.76709 h -2.50527 v -5.698877 q 0,-0.84956 -0.0558,-1.035595 -0.0558,-0.186036 -0.31006,-0.186036 -0.26665,0 -0.33486,0.217041 -0.0682,0.21084 -0.0682,1.141016 v 5.562451 h -2.50527 v -8.228955 z" />
        <path
           id="path5183"
           style="font-style:normal;font-variant:normal;font-weight:bold;font-stretch:normal;font-size:12.69999981px;line-height:0px;letter-spacing:0px;fill:#eeeeee;fill-opacity:1;stroke:#0a416d;stroke-width:0.26499999;stroke-miterlimit:4;stroke-dasharray:none;stroke-opacity:1"
           d="m 112.53776,62.748886 h -3.24321 v 1.779736 q 0,0.558106 0.0806,0.719336 0.0806,0.161231 0.31006,0.161231 0.28525,0 0.37827,-0.21084 0.0992,-0.217041 0.0992,-0.830957 v -1.085205 h 2.37505 v 0.607715 q 0,0.762744 -0.0992,1.172021 -0.093,0.409278 -0.44648,0.874365 -0.35347,0.465088 -0.89917,0.700733 -0.53951,0.229443 -1.35806,0.229443 -0.79375,0 -1.40147,-0.229443 -0.60771,-0.229443 -0.94878,-0.626318 -0.33486,-0.403077 -0.46508,-0.880567 -0.13023,-0.483691 -0.13023,-1.401465 v -2.399853 q 0,-1.079004 0.29146,-1.699121 0.29145,-0.626319 0.95498,-0.954981 0.66352,-0.334863 1.52549,-0.334863 1.0542,0 1.73632,0.403076 0.68833,0.396875 0.96119,1.060401 0.27905,0.657324 0.27905,1.85415 z m -2.51148,-1.339453 v -0.601514 q 0,-0.63872 -0.0682,-0.824755 -0.0682,-0.186036 -0.27905,-0.186036 -0.26045,0 -0.32246,0.161231 -0.062,0.155029 -0.062,0.84956 v 0.601514 z" />
      </g>
      <g
         id="text28"
         style="font-style:normal;font-variant:normal;font-weight:bold;font-stretch:normal;font-size:12.69999981px;line-height:1.25;letter-spacing:0px;word-spacing:0px;display:inline;fill:#ffac1f;fill-opacity:1;stroke:#073d69;stroke-width:0.26458332;stroke-opacity:1"
         aria-label="store">
        <path
           id="path5186"
           style="font-style:normal;font-variant:normal;font-weight:bold;font-stretch:normal;font-size:12.69999981px;letter-spacing:0px;fill:#ffac1f;fill-opacity:1;stroke:#073d69;stroke-width:0.26458332;stroke-opacity:1"
           d="m 118.14697,61.118192 h -2.22002 v -0.446485 q 0,-0.570508 -0.0682,-0.719336 -0.062,-0.155029 -0.32246,-0.155029 -0.21084,0 -0.31626,0.142627 -0.10542,0.136426 -0.10542,0.415478 0,0.378272 0.0496,0.558106 0.0558,0.173633 0.31626,0.384473 0.26665,0.210839 1.0852,0.613916 1.09141,0.5333 1.43247,1.004589 0.34107,0.471289 0.34107,1.370459 0,1.00459 -0.26045,1.519287 -0.26045,0.508497 -0.87437,0.787549 -0.60771,0.272852 -1.46968,0.272852 -0.95498,0 -1.63711,-0.297656 -0.67592,-0.297657 -0.93017,-0.806153 -0.25425,-0.508496 -0.25425,-1.53789 v -0.396875 h 2.22002 v 0.520898 q 0,0.663525 0.0806,0.861963 0.0868,0.198437 0.33486,0.198437 0.26665,0 0.37207,-0.130224 0.10542,-0.136426 0.10542,-0.564307 0,-0.589111 -0.13643,-0.737939 -0.14262,-0.148828 -1.45727,-0.880567 -1.10381,-0.620117 -1.34566,-1.122412 -0.24184,-0.508496 -0.24184,-1.203027 0,-0.985986 0.26045,-1.451074 0.26045,-0.471289 0.88056,-0.725537 0.62632,-0.254248 1.45108,-0.254248 0.81855,0 1.38906,0.210839 0.57671,0.204639 0.88057,0.545704 0.31005,0.341064 0.37207,0.632519 0.0682,0.291455 0.0682,0.911572 z" />
        <path
           id="path5188"
           style="font-style:normal;font-variant:normal;font-weight:bold;font-stretch:normal;font-size:12.69999981px;letter-spacing:0px;fill:#ffac1f;fill-opacity:1;stroke:#073d69;stroke-width:0.26458332;stroke-opacity:1"
           d="m 121.65063,57.391287 v 1.296045 h 0.67593 v 1.302246 h -0.67593 v 4.402832 q 0,0.812354 0.0806,0.905371 0.0868,0.09302 0.70073,0.09302 v 1.327051 h -1.01079 q -0.85576,0 -1.22163,-0.06821 -0.36587,-0.07441 -0.64492,-0.328662 -0.27906,-0.260449 -0.34727,-0.589112 -0.0682,-0.334863 -0.0682,-1.562695 v -4.17959 h -0.5395 v -1.302246 h 0.5395 v -1.296045 z" />
        <path
           id="path5190"
           style="font-style:normal;font-variant:normal;font-weight:bold;font-stretch:normal;font-size:12.69999981px;letter-spacing:0px;fill:#ffac1f;fill-opacity:1;stroke:#073d69;stroke-width:0.26458332;stroke-opacity:1"
           d="m 128.54633,61.378641 v 2.015381 q 0,1.110009 -0.11162,1.630908 -0.11162,0.514697 -0.47749,0.967383 -0.36587,0.446484 -0.94257,0.663525 -0.57051,0.21084 -1.31465,0.21084 -0.83096,0 -1.40767,-0.179834 -0.57671,-0.186035 -0.89917,-0.551904 -0.31626,-0.372071 -0.45268,-0.892969 -0.13643,-0.5271 -0.13643,-1.575098 v -2.108398 q 0,-1.147217 0.24805,-1.792139 0.24804,-0.644922 0.89297,-1.035596 0.64492,-0.390673 1.64951,-0.390673 0.84336,0 1.44487,0.254248 0.60771,0.248047 0.93638,0.651123 0.32866,0.403076 0.44648,0.830957 0.12402,0.427881 0.12402,1.302246 z m -2.50527,-0.620117 q 0,-0.63252 -0.0682,-0.79375 -0.0682,-0.167432 -0.29146,-0.167432 -0.22324,0 -0.29765,0.167432 -0.0744,0.16123 -0.0744,0.79375 v 3.714502 q 0,0.58291 0.0744,0.762744 0.0744,0.173632 0.29145,0.173632 0.22324,0 0.29146,-0.16123 0.0744,-0.16123 0.0744,-0.694531 z" />
        <path
           id="path5192"
           style="font-style:normal;font-variant:normal;font-weight:bold;font-stretch:normal;font-size:12.69999981px;letter-spacing:0px;fill:#ffac1f;fill-opacity:1;stroke:#073d69;stroke-width:0.26458332;stroke-opacity:1"
           d="m 131.88256,58.488895 -0.0992,1.079004 q 0.5457,-1.159619 1.58129,-1.227832 v 2.895947 q -0.68833,0 -1.01079,0.186035 -0.32246,0.186035 -0.39687,0.520898 -0.0744,0.328663 -0.0744,1.525489 v 3.249414 h -2.50527 v -8.228955 z" />
        <path
           id="path5194"
           style="font-style:normal;font-variant:normal;font-weight:bold;font-stretch:normal;font-size:12.69999981px;letter-spacing:0px;fill:#ffac1f;fill-opacity:1;stroke:#073d69;stroke-width:0.26458332;stroke-opacity:1"
           d="m 139.59062,62.7491 h -3.24321 v 1.779736 q 0,0.558106 0.0806,0.719336 0.0806,0.16123 0.31006,0.16123 0.28526,0 0.37827,-0.210839 0.0992,-0.217041 0.0992,-0.830957 v -1.085205 h 2.37505 v 0.607714 q 0,0.762745 -0.0992,1.172022 -0.093,0.409277 -0.44648,0.874365 -0.35347,0.465088 -0.89917,0.700732 -0.5395,0.229444 -1.35806,0.229444 -0.79375,0 -1.40146,-0.229444 -0.60772,-0.229443 -0.94878,-0.626318 -0.33487,-0.403076 -0.46509,-0.880566 -0.13023,-0.483692 -0.13023,-1.401465 v -2.399854 q 0,-1.079003 0.29146,-1.699121 0.29145,-0.626318 0.95498,-0.95498 0.66353,-0.334863 1.52549,-0.334863 1.0542,0 1.73633,0.403076 0.68833,0.396875 0.96118,1.0604 0.27905,0.657324 0.27905,1.854151 z m -2.51147,-1.339453 v -0.601514 q 0,-0.638721 -0.0682,-0.824756 -0.0682,-0.186035 -0.27905,-0.186035 -0.26045,0 -0.32246,0.16123 -0.062,0.15503 -0.062,0.849561 v 0.601514 z" />
      </g>
      <g
         id="text4529-4"
         style="font-style:normal;font-variant:normal;font-weight:normal;font-stretch:condensed;font-size:5.99722242px;line-height:1.25;letter-spacing:0px;word-spacing:0px;display:inline;fill:#063c68;fill-opacity:1;stroke:none;stroke-width:0.26458332;stroke-opacity:1"
         aria-label="largest electronics store">
        <path
           id="path5244"
           style="font-style:normal;font-variant:normal;font-weight:normal;font-stretch:condensed;font-size:5.99722242px;fill:#063c68;fill-opacity:1;stroke:none;stroke-width:0.26458332;stroke-opacity:1"
           d="M 81.930346,69.084372 V 73.82534 H 80.71216 v -4.740968 z" />
        <path
           id="path5246"
           style="font-style:normal;font-variant:normal;font-weight:normal;font-stretch:condensed;font-size:5.99722242px;fill:#063c68;fill-opacity:1;stroke:none;stroke-width:0.26458332;stroke-opacity:1"
           d="m 83.409153,71.444607 h -1.109838 v -0.260622 q 0,-0.450963 0.102492,-0.694014 0.10542,-0.24598 0.418751,-0.433393 0.313332,-0.187413 0.814076,-0.187413 0.600308,0 0.904855,0.213768 0.304546,0.21084 0.366041,0.521243 0.0615,0.307475 0.0615,1.270896 v 1.950268 h -1.150834 v -0.345543 q -0.108348,0.207912 -0.28112,0.313332 -0.169843,0.102491 -0.407038,0.102491 -0.310403,0 -0.571025,-0.172771 -0.257693,-0.1757 -0.257693,-0.764295 v -0.319188 q 0,-0.436321 0.137632,-0.594451 0.137631,-0.15813 0.682301,-0.36897 0.582738,-0.22841 0.623735,-0.307475 0.041,-0.07906 0.041,-0.322116 0,-0.304547 -0.04685,-0.395325 -0.04393,-0.09371 -0.149345,-0.09371 -0.120062,0 -0.149345,0.07906 -0.02928,0.07614 -0.02928,0.401181 z m 0.374826,0.532956 q -0.284048,0.207912 -0.330901,0.348472 -0.04393,0.14056 -0.04393,0.404109 0,0.301618 0.03807,0.389468 0.041,0.08785 0.15813,0.08785 0.111277,0 0.143488,-0.06735 0.03514,-0.07028 0.03514,-0.363113 z" />
        <path
           id="path5248"
           style="font-style:normal;font-variant:normal;font-weight:normal;font-stretch:condensed;font-size:5.99722242px;fill:#063c68;fill-opacity:1;stroke:none;stroke-width:0.26458332;stroke-opacity:1"
           d="m 86.557109,69.939445 -0.04685,0.509529 q 0.257693,-0.547598 0.746724,-0.579809 v 1.36753 q -0.325045,0 -0.477318,0.08785 -0.152273,0.08785 -0.187413,0.24598 -0.03514,0.155202 -0.03514,0.72037 v 1.534445 h -1.183046 v -3.885895 z" />
        <path
           id="path5250"
           style="font-style:normal;font-variant:normal;font-weight:normal;font-stretch:condensed;font-size:5.99722242px;fill:#063c68;fill-opacity:1;stroke:none;stroke-width:0.26458332;stroke-opacity:1"
           d="m 90.20581,69.939445 v 2.992754 q 0,0.606165 -0.02928,0.784793 -0.02635,0.1757 -0.196198,0.371898 -0.169843,0.199127 -0.474389,0.301618 -0.301619,0.10542 -0.761367,0.10542 -0.565168,0 -0.907782,-0.19327 -0.342615,-0.190341 -0.354328,-0.752581 h 1.147905 q 0,0.257693 0.187414,0.257693 0.134703,0 0.178628,-0.07906 0.04393,-0.07906 0.04393,-0.330901 v -0.292833 q -0.152273,0.137631 -0.322117,0.207911 -0.166914,0.07028 -0.351399,0.07028 -0.319188,0 -0.5271,-0.128846 -0.204983,-0.128847 -0.28112,-0.336758 -0.07614,-0.21084 -0.07614,-0.59738 v -1.411456 q 0,-0.553454 0.199126,-0.796506 0.199127,-0.243051 0.606165,-0.243051 0.222553,0 0.404109,0.09078 0.184485,0.09078 0.327974,0.272335 l 0.08492,-0.292833 z m -1.185974,1.030772 q 0,-0.266478 -0.03221,-0.339686 -0.02928,-0.07321 -0.134703,-0.07321 -0.102492,0 -0.146417,0.08492 -0.041,0.08199 -0.041,0.327973 v 1.306036 q 0,0.260622 0.03221,0.339686 0.03221,0.07614 0.134703,0.07614 0.117134,0 0.152274,-0.09371 0.03514,-0.09371 0.03514,-0.424608 z" />
        <path
           id="path5252"
           style="font-style:normal;font-variant:normal;font-weight:normal;font-stretch:condensed;font-size:5.99722242px;fill:#063c68;fill-opacity:1;stroke:none;stroke-width:0.26458332;stroke-opacity:1"
           d="m 93.312769,71.951208 h -1.531517 v 0.840431 q 0,0.26355 0.03807,0.339687 0.03807,0.07614 0.146417,0.07614 0.134703,0 0.178628,-0.09956 0.04685,-0.102491 0.04685,-0.392396 v -0.512458 h 1.121551 v 0.286976 q 0,0.360185 -0.04685,0.553455 -0.04393,0.19327 -0.21084,0.412895 -0.166915,0.219624 -0.424608,0.330901 -0.254765,0.108348 -0.641304,0.108348 -0.374827,0 -0.661803,-0.108348 -0.286977,-0.108348 -0.448035,-0.295761 -0.15813,-0.190342 -0.219625,-0.415824 -0.06149,-0.228409 -0.06149,-0.661802 V 71.28062 q 0,-0.509529 0.137632,-0.802362 0.137631,-0.295762 0.450963,-0.450963 0.313331,-0.15813 0.720369,-0.15813 0.497817,0 0.819933,0.190341 0.325045,0.187413 0.453891,0.500745 0.131775,0.310403 0.131775,0.875571 z m -1.185974,-0.632519 v -0.284048 q 0,-0.301619 -0.03221,-0.389468 -0.03221,-0.08785 -0.131774,-0.08785 -0.12299,0 -0.152274,0.07614 -0.02928,0.07321 -0.02928,0.401182 v 0.284048 z" />
        <path
           id="path5254"
           style="font-style:normal;font-variant:normal;font-weight:normal;font-stretch:condensed;font-size:5.99722242px;fill:#063c68;fill-opacity:1;stroke:none;stroke-width:0.26458332;stroke-opacity:1"
           d="m 96.11811,71.181057 h -1.048343 v -0.21084 q 0,-0.269406 -0.03221,-0.339686 -0.02928,-0.07321 -0.152273,-0.07321 -0.09956,0 -0.149345,0.06735 -0.04978,0.06442 -0.04978,0.196198 0,0.178629 0.02343,0.26355 0.02636,0.08199 0.149345,0.181557 0.125918,0.09956 0.512458,0.289905 0.515386,0.251836 0.676444,0.474389 0.161058,0.222553 0.161058,0.647161 0,0.47439 -0.12299,0.717442 -0.12299,0.240123 -0.412894,0.371898 -0.286977,0.128846 -0.694015,0.128846 -0.450963,0 -0.773079,-0.14056 -0.319188,-0.14056 -0.43925,-0.380683 -0.120062,-0.240123 -0.120062,-0.726226 v -0.187413 h 1.048343 v 0.24598 q 0,0.313331 0.03807,0.407038 0.041,0.09371 0.15813,0.09371 0.125918,0 0.1757,-0.0615 0.04978,-0.06442 0.04978,-0.266478 0,-0.278191 -0.06442,-0.348471 -0.06735,-0.07028 -0.688157,-0.415823 -0.521243,-0.292833 -0.635448,-0.530028 -0.114205,-0.240123 -0.114205,-0.568096 0,-0.465605 0.12299,-0.68523 0.12299,-0.222553 0.415823,-0.342615 0.295761,-0.120061 0.685229,-0.120061 0.38654,0 0.655946,0.09956 0.272335,0.09664 0.415824,0.257693 0.146416,0.161058 0.175699,0.29869 0.03221,0.137632 0.03221,0.430465 z" />
        <path
           id="path5256"
           style="font-style:normal;font-variant:normal;font-weight:normal;font-stretch:condensed;font-size:5.99722242px;fill:#063c68;fill-opacity:1;stroke:none;stroke-width:0.26458332;stroke-opacity:1"
           d="m 97.772617,69.42113 v 0.612021 h 0.319188 v 0.61495 h -0.319188 v 2.079115 q 0,0.383611 0.03807,0.427536 0.041,0.04393 0.330902,0.04393 v 0.626663 h -0.477318 q -0.40411,0 -0.576881,-0.03221 -0.172772,-0.03514 -0.304547,-0.155202 -0.131775,-0.12299 -0.163986,-0.278191 -0.03221,-0.15813 -0.03221,-0.73794 v -1.973695 h -0.254765 v -0.61495 h 0.254765 V 69.42113 Z" />
        <path
           id="path5258"
           style="font-style:normal;font-variant:normal;font-weight:normal;font-stretch:condensed;font-size:5.99722242px;fill:#063c68;fill-opacity:1;stroke:none;stroke-width:0.26458332;stroke-opacity:1"
           d="m 102.08605,71.951208 h -1.53152 v 0.840431 q 0,0.26355 0.0381,0.339687 0.0381,0.07614 0.14642,0.07614 0.1347,0 0.17862,-0.09956 0.0469,-0.102491 0.0469,-0.392396 v -0.512458 h 1.12155 v 0.286976 q 0,0.360185 -0.0469,0.553455 -0.0439,0.19327 -0.21084,0.412895 -0.16692,0.219624 -0.42461,0.330901 -0.25477,0.108348 -0.64131,0.108348 -0.37482,0 -0.6618,-0.108348 -0.286977,-0.108348 -0.448035,-0.295761 -0.15813,-0.190342 -0.219625,-0.415824 -0.06149,-0.228409 -0.06149,-0.661802 V 71.28062 q 0,-0.509529 0.137632,-0.802362 0.137632,-0.295762 0.450963,-0.450963 0.31333,-0.15813 0.72037,-0.15813 0.49782,0 0.81993,0.190341 0.32505,0.187413 0.45389,0.500745 0.13178,0.310403 0.13178,0.875571 z m -1.18598,-0.632519 v -0.284048 q 0,-0.301619 -0.0322,-0.389468 -0.0322,-0.08785 -0.13177,-0.08785 -0.12299,0 -0.15228,0.07614 -0.0293,0.07321 -0.0293,0.401182 v 0.284048 z" />
        <path
           id="path5260"
           style="font-style:normal;font-variant:normal;font-weight:normal;font-stretch:condensed;font-size:5.99722242px;fill:#063c68;fill-opacity:1;stroke:none;stroke-width:0.26458332;stroke-opacity:1"
           d="m 103.6937,69.084372 v 4.740968 h -1.21818 v -4.740968 z" />
        <path
           id="path5262"
           style="font-style:normal;font-variant:normal;font-weight:normal;font-stretch:condensed;font-size:5.99722242px;fill:#063c68;fill-opacity:1;stroke:none;stroke-width:0.26458332;stroke-opacity:1"
           d="m 106.79481,71.951208 h -1.53152 v 0.840431 q 0,0.26355 0.0381,0.339687 0.0381,0.07614 0.14641,0.07614 0.13471,0 0.17863,-0.09956 0.0469,-0.102491 0.0469,-0.392396 v -0.512458 h 1.12155 v 0.286976 q 0,0.360185 -0.0469,0.553455 -0.0439,0.19327 -0.21084,0.412895 -0.16691,0.219624 -0.42461,0.330901 -0.25476,0.108348 -0.6413,0.108348 -0.37483,0 -0.6618,-0.108348 -0.28698,-0.108348 -0.44804,-0.295761 -0.15813,-0.190342 -0.21962,-0.415824 -0.0615,-0.228409 -0.0615,-0.661802 V 71.28062 q 0,-0.509529 0.13763,-0.802362 0.13764,-0.295762 0.45097,-0.450963 0.31333,-0.15813 0.72037,-0.15813 0.49781,0 0.81993,0.190341 0.32504,0.187413 0.45389,0.500745 0.13178,0.310403 0.13178,0.875571 z m -1.18598,-0.632519 v -0.284048 q 0,-0.301619 -0.0322,-0.389468 -0.0322,-0.08785 -0.13177,-0.08785 -0.12299,0 -0.15228,0.07614 -0.0293,0.07321 -0.0293,0.401182 v 0.284048 z" />
        <path
           id="path5264"
           style="font-style:normal;font-variant:normal;font-weight:normal;font-stretch:condensed;font-size:5.99722242px;fill:#063c68;fill-opacity:1;stroke:none;stroke-width:0.26458332;stroke-opacity:1"
           d="m 109.79927,71.406539 h -1.11569 v -0.448035 q 0,-0.234267 -0.0381,-0.31626 -0.0381,-0.08492 -0.14056,-0.08492 -0.10249,0 -0.13763,0.07321 -0.0351,0.07321 -0.0351,0.327973 v 1.833135 q 0,0.207912 0.0527,0.313332 0.0527,0.102491 0.1552,0.102491 0.12006,0 0.16106,-0.108348 0.0439,-0.108348 0.0439,-0.409966 v -0.462677 h 1.0542 q -0.003,0.465605 -0.0351,0.699872 -0.0293,0.231338 -0.19619,0.477318 -0.16399,0.243051 -0.43047,0.368969 -0.26648,0.12299 -0.65887,0.12299 -0.50075,0 -0.79358,-0.169843 -0.29283,-0.172772 -0.41582,-0.480246 -0.12007,-0.310403 -0.12007,-0.8785 V 71.26305 q 0,-0.494888 0.0996,-0.746724 0.0996,-0.251837 0.42461,-0.448035 0.32504,-0.199126 0.79065,-0.199126 0.46267,0 0.79064,0.196198 0.32798,0.196198 0.43633,0.494888 0.10834,0.29869 0.10834,0.846288 z" />
        <path
           id="path5266"
           style="font-style:normal;font-variant:normal;font-weight:normal;font-stretch:condensed;font-size:5.99722242px;fill:#063c68;fill-opacity:1;stroke:none;stroke-width:0.26458332;stroke-opacity:1"
           d="m 111.39521,69.42113 v 0.612021 h 0.31919 v 0.61495 h -0.31919 v 2.079115 q 0,0.383611 0.0381,0.427536 0.041,0.04393 0.3309,0.04393 v 0.626663 h -0.47731 q -0.40411,0 -0.57689,-0.03221 -0.17277,-0.03514 -0.30454,-0.155202 -0.13178,-0.12299 -0.16399,-0.278191 -0.0322,-0.15813 -0.0322,-0.73794 v -1.973695 h -0.25477 v -0.61495 h 0.25477 V 69.42113 Z" />
        <path
           id="path5268"
           style="font-style:normal;font-variant:normal;font-weight:normal;font-stretch:condensed;font-size:5.99722242px;fill:#063c68;fill-opacity:1;stroke:none;stroke-width:0.26458332;stroke-opacity:1"
           d="m 113.15807,69.939445 -0.0468,0.509529 q 0.25769,-0.547598 0.74672,-0.579809 v 1.36753 q -0.32504,0 -0.47732,0.08785 -0.15227,0.08785 -0.18741,0.24598 -0.0351,0.155202 -0.0351,0.72037 v 1.534445 h -1.18305 v -3.885895 z" />
        <path
           id="path5270"
           style="font-style:normal;font-variant:normal;font-weight:normal;font-stretch:condensed;font-size:5.99722242px;fill:#063c68;fill-opacity:1;stroke:none;stroke-width:0.26458332;stroke-opacity:1"
           d="m 116.79506,71.304047 v 0.951708 q 0,0.524171 -0.0527,0.770151 -0.0527,0.243051 -0.22548,0.45682 -0.17278,0.210839 -0.44511,0.313331 -0.26941,0.09956 -0.62081,0.09956 -0.39239,0 -0.66473,-0.08492 -0.27233,-0.08785 -0.42461,-0.260622 -0.14934,-0.1757 -0.21376,-0.42168 -0.0644,-0.248908 -0.0644,-0.743796 v -0.995632 q 0,-0.541742 0.11714,-0.846288 0.11713,-0.304547 0.42168,-0.489031 0.30454,-0.184485 0.77893,-0.184485 0.39825,0 0.6823,0.120061 0.28698,0.117134 0.44218,0.307475 0.1552,0.190342 0.21084,0.392396 0.0586,0.202055 0.0586,0.61495 z m -1.18305,-0.292833 q 0,-0.29869 -0.0322,-0.374826 -0.0322,-0.07906 -0.13763,-0.07906 -0.10542,0 -0.14056,0.07906 -0.0351,0.07614 -0.0351,0.374826 v 1.75407 q 0,0.275263 0.0351,0.360185 0.0351,0.08199 0.13763,0.08199 0.10542,0 0.13763,-0.07614 0.0351,-0.07614 0.0351,-0.327973 z" />
        <path
           id="path5272"
           style="font-style:normal;font-variant:normal;font-weight:normal;font-stretch:condensed;font-size:5.99722242px;fill:#063c68;fill-opacity:1;stroke:none;stroke-width:0.26458332;stroke-opacity:1"
           d="m 118.391,69.939445 -0.0205,0.357256 q 0.12884,-0.213768 0.31333,-0.319188 0.18741,-0.108348 0.43046,-0.108348 0.30455,0 0.49782,0.143488 0.19327,0.143488 0.24891,0.363113 0.0556,0.216697 0.0556,0.726226 v 2.723348 h -1.18305 v -2.691136 q 0,-0.401182 -0.0263,-0.489031 -0.0264,-0.08785 -0.14642,-0.08785 -0.12592,0 -0.15813,0.102491 -0.0322,0.09956 -0.0322,0.538813 v 2.626713 h -1.18305 v -3.885895 z" />
        <path
           id="path5274"
           style="font-style:normal;font-variant:normal;font-weight:normal;font-stretch:condensed;font-size:5.99722242px;fill:#063c68;fill-opacity:1;stroke:none;stroke-width:0.26458332;stroke-opacity:1"
           d="m 121.54481,69.084372 v 0.617878 h -1.21819 v -0.617878 z m 0,0.855073 v 3.885895 h -1.21819 v -3.885895 z" />
        <path
           id="path5276"
           style="font-style:normal;font-variant:normal;font-weight:normal;font-stretch:condensed;font-size:5.99722242px;fill:#063c68;fill-opacity:1;stroke:none;stroke-width:0.26458332;stroke-opacity:1"
           d="m 124.58149,71.406539 h -1.11569 v -0.448035 q 0,-0.234267 -0.0381,-0.31626 -0.0381,-0.08492 -0.14056,-0.08492 -0.10249,0 -0.13763,0.07321 -0.0351,0.07321 -0.0351,0.327973 v 1.833135 q 0,0.207912 0.0527,0.313332 0.0527,0.102491 0.1552,0.102491 0.12006,0 0.16106,-0.108348 0.0439,-0.108348 0.0439,-0.409966 v -0.462677 h 1.0542 q -0.003,0.465605 -0.0351,0.699872 -0.0293,0.231338 -0.1962,0.477318 -0.16399,0.243051 -0.43046,0.368969 -0.26648,0.12299 -0.65888,0.12299 -0.50074,0 -0.79358,-0.169843 -0.29283,-0.172772 -0.41582,-0.480246 -0.12006,-0.310403 -0.12006,-0.8785 V 71.26305 q 0,-0.494888 0.0996,-0.746724 0.0996,-0.251837 0.42461,-0.448035 0.32505,-0.199126 0.79065,-0.199126 0.46268,0 0.79065,0.196198 0.32797,0.196198 0.43632,0.494888 0.10835,0.29869 0.10835,0.846288 z" />
        <path
           id="path5278"
           style="font-style:normal;font-variant:normal;font-weight:normal;font-stretch:condensed;font-size:5.99722242px;fill:#063c68;fill-opacity:1;stroke:none;stroke-width:0.26458332;stroke-opacity:1"
           d="m 127.34583,71.181057 h -1.04834 v -0.21084 q 0,-0.269406 -0.0322,-0.339686 -0.0293,-0.07321 -0.15227,-0.07321 -0.0996,0 -0.14935,0.06735 -0.0498,0.06442 -0.0498,0.196198 0,0.178629 0.0234,0.26355 0.0264,0.08199 0.14934,0.181557 0.12592,0.09956 0.51246,0.289905 0.51538,0.251836 0.67644,0.474389 0.16106,0.222553 0.16106,0.647161 0,0.47439 -0.12299,0.717442 -0.12299,0.240123 -0.41289,0.371898 -0.28698,0.128846 -0.69402,0.128846 -0.45096,0 -0.77308,-0.14056 -0.31919,-0.14056 -0.43925,-0.380683 -0.12006,-0.240123 -0.12006,-0.726226 v -0.187413 h 1.04834 v 0.24598 q 0,0.313331 0.0381,0.407038 0.041,0.09371 0.15813,0.09371 0.12592,0 0.1757,-0.0615 0.0498,-0.06442 0.0498,-0.266478 0,-0.278191 -0.0644,-0.348471 -0.0674,-0.07028 -0.68816,-0.415823 -0.52124,-0.292833 -0.63545,-0.530028 -0.1142,-0.240123 -0.1142,-0.568096 0,-0.465605 0.12299,-0.68523 0.12299,-0.222553 0.41582,-0.342615 0.29576,-0.120061 0.68523,-0.120061 0.38654,0 0.65595,0.09956 0.27233,0.09664 0.41582,0.257693 0.14642,0.161058 0.1757,0.29869 0.0322,0.137632 0.0322,0.430465 z" />
        <path
           id="path5280"
           style="font-style:normal;font-variant:normal;font-weight:normal;font-stretch:condensed;font-size:5.99722242px;fill:#063c68;fill-opacity:1;stroke:none;stroke-width:0.26458332;stroke-opacity:1"
           d="m 131.22295,71.181057 h -1.04835 v -0.21084 q 0,-0.269406 -0.0322,-0.339686 -0.0293,-0.07321 -0.15227,-0.07321 -0.0996,0 -0.14935,0.06735 -0.0498,0.06442 -0.0498,0.196198 0,0.178629 0.0234,0.26355 0.0263,0.08199 0.14934,0.181557 0.12592,0.09956 0.51246,0.289905 0.51539,0.251836 0.67645,0.474389 0.16105,0.222553 0.16105,0.647161 0,0.47439 -0.12299,0.717442 -0.12299,0.240123 -0.41289,0.371898 -0.28698,0.128846 -0.69401,0.128846 -0.45097,0 -0.77308,-0.14056 -0.31919,-0.14056 -0.43925,-0.380683 -0.12007,-0.240123 -0.12007,-0.726226 v -0.187413 h 1.04835 v 0.24598 q 0,0.313331 0.0381,0.407038 0.041,0.09371 0.15813,0.09371 0.12591,0 0.1757,-0.0615 0.0498,-0.06442 0.0498,-0.266478 0,-0.278191 -0.0644,-0.348471 -0.0674,-0.07028 -0.68815,-0.415823 -0.52125,-0.292833 -0.63545,-0.530028 -0.11421,-0.240123 -0.11421,-0.568096 0,-0.465605 0.12299,-0.68523 0.12299,-0.222553 0.41583,-0.342615 0.29576,-0.120061 0.68523,-0.120061 0.38654,0 0.65594,0.09956 0.27234,0.09664 0.41582,0.257693 0.14642,0.161058 0.1757,0.29869 0.0322,0.137632 0.0322,0.430465 z" />
        <path
           id="path5282"
           style="font-style:normal;font-variant:normal;font-weight:normal;font-stretch:condensed;font-size:5.99722242px;fill:#063c68;fill-opacity:1;stroke:none;stroke-width:0.26458332;stroke-opacity:1"
           d="m 132.87745,69.42113 v 0.612021 h 0.31919 v 0.61495 h -0.31919 v 2.079115 q 0,0.383611 0.0381,0.427536 0.041,0.04393 0.3309,0.04393 v 0.626663 h -0.47732 q -0.40411,0 -0.57688,-0.03221 -0.17277,-0.03514 -0.30454,-0.155202 -0.13178,-0.12299 -0.16399,-0.278191 -0.0322,-0.15813 -0.0322,-0.73794 v -1.973695 h -0.25477 v -0.61495 h 0.25477 V 69.42113 Z" />
        <path
           id="path5284"
           style="font-style:normal;font-variant:normal;font-weight:normal;font-stretch:condensed;font-size:5.99722242px;fill:#063c68;fill-opacity:1;stroke:none;stroke-width:0.26458332;stroke-opacity:1"
           d="m 136.13376,71.304047 v 0.951708 q 0,0.524171 -0.0527,0.770151 -0.0527,0.243051 -0.22549,0.45682 -0.17277,0.210839 -0.4451,0.313331 -0.26941,0.09956 -0.62081,0.09956 -0.39239,0 -0.66473,-0.08492 -0.27233,-0.08785 -0.42461,-0.260622 -0.14934,-0.1757 -0.21377,-0.42168 -0.0644,-0.248908 -0.0644,-0.743796 v -0.995632 q 0,-0.541742 0.11713,-0.846288 0.11714,-0.304547 0.42168,-0.489031 0.30455,-0.184485 0.77894,-0.184485 0.39825,0 0.6823,0.120061 0.28698,0.117134 0.44218,0.307475 0.1552,0.190342 0.21084,0.392396 0.0586,0.202055 0.0586,0.61495 z m -1.18305,-0.292833 q 0,-0.29869 -0.0322,-0.374826 -0.0322,-0.07906 -0.13763,-0.07906 -0.10542,0 -0.14056,0.07906 -0.0351,0.07614 -0.0351,0.374826 v 1.75407 q 0,0.275263 0.0351,0.360185 0.0351,0.08199 0.13763,0.08199 0.10542,0 0.13763,-0.07614 0.0351,-0.07614 0.0351,-0.327973 z" />
        <path
           id="path5286"
           style="font-style:normal;font-variant:normal;font-weight:normal;font-stretch:condensed;font-size:5.99722242px;fill:#063c68;fill-opacity:1;stroke:none;stroke-width:0.26458332;stroke-opacity:1"
           d="m 137.7092,69.939445 -0.0469,0.509529 q 0.2577,-0.547598 0.74673,-0.579809 v 1.36753 q -0.32505,0 -0.47732,0.08785 -0.15227,0.08785 -0.18741,0.24598 -0.0351,0.155202 -0.0351,0.72037 v 1.534445 h -1.18305 v -3.885895 z" />
        <path
           id="path5288"
           style="font-style:normal;font-variant:normal;font-weight:normal;font-stretch:condensed;font-size:5.99722242px;fill:#063c68;fill-opacity:1;stroke:none;stroke-width:0.26458332;stroke-opacity:1"
           d="m 141.34911,71.951208 h -1.53151 v 0.840431 q 0,0.26355 0.0381,0.339687 0.0381,0.07614 0.14642,0.07614 0.1347,0 0.17863,-0.09956 0.0469,-0.102491 0.0469,-0.392396 v -0.512458 h 1.12155 v 0.286976 q 0,0.360185 -0.0469,0.553455 -0.0439,0.19327 -0.21084,0.412895 -0.16691,0.219624 -0.42461,0.330901 -0.25476,0.108348 -0.6413,0.108348 -0.37483,0 -0.6618,-0.108348 -0.28698,-0.108348 -0.44804,-0.295761 -0.15813,-0.190342 -0.21962,-0.415824 -0.0615,-0.228409 -0.0615,-0.661802 V 71.28062 q 0,-0.509529 0.13763,-0.802362 0.13763,-0.295762 0.45097,-0.450963 0.31333,-0.15813 0.72036,-0.15813 0.49782,0 0.81994,0.190341 0.32504,0.187413 0.45389,0.500745 0.13177,0.310403 0.13177,0.875571 z m -1.18597,-0.632519 v -0.284048 q 0,-0.301619 -0.0322,-0.389468 -0.0322,-0.08785 -0.13178,-0.08785 -0.12299,0 -0.15227,0.07614 -0.0293,0.07321 -0.0293,0.401182 v 0.284048 z" />
      </g>
      <g
         transform="translate(-0.13229667,-0.13228567)"
         id="text4529"
         style="font-style:normal;font-variant:normal;font-weight:normal;font-stretch:normal;font-size:5.9972229px;line-height:1.25;letter-spacing:0px;word-spacing:0px;display:inline;fill:#eeeeee;fill-opacity:1;stroke:none;stroke-width:0.26458332;stroke-opacity:1"
         aria-label="largest electronics store">
        <path
           id="path5197"
           style="font-style:normal;font-variant:normal;font-weight:normal;font-stretch:normal;font-size:5.9972229px;fill:#eeeeee;fill-opacity:1;stroke:none;stroke-width:0.26458332;stroke-opacity:1"
           d="m 81.533472,68.68749 v 4.740969 H 80.315286 V 68.68749 Z" />
        <path
           id="path5199"
           style="font-style:normal;font-variant:normal;font-weight:normal;font-stretch:normal;font-size:5.9972229px;fill:#eeeeee;fill-opacity:1;stroke:none;stroke-width:0.26458332;stroke-opacity:1"
           d="m 83.01228,71.047726 h -1.109838 v -0.260622 q 0,-0.450963 0.102492,-0.694014 0.105419,-0.24598 0.418751,-0.433393 0.313331,-0.187414 0.814076,-0.187414 0.600308,0 0.904855,0.213769 0.304546,0.210839 0.366041,0.521243 0.06149,0.307474 0.06149,1.270895 v 1.950269 h -1.150834 v -0.345543 q -0.108349,0.207912 -0.28112,0.313332 -0.169843,0.102491 -0.407038,0.102491 -0.310403,0 -0.571025,-0.172771 -0.257693,-0.1757 -0.257693,-0.764295 v -0.319188 q 0,-0.436321 0.137632,-0.594451 0.137631,-0.15813 0.682301,-0.36897 0.582738,-0.22841 0.623734,-0.307475 0.041,-0.07906 0.041,-0.322116 0,-0.304547 -0.04685,-0.395325 -0.04393,-0.09371 -0.149345,-0.09371 -0.120062,0 -0.149345,0.07906 -0.02928,0.07614 -0.02928,0.401182 z m 0.374826,0.532956 q -0.284048,0.207912 -0.330901,0.348471 -0.04393,0.14056 -0.04393,0.40411 0,0.301618 0.03807,0.389468 0.041,0.08785 0.15813,0.08785 0.111276,0 0.143488,-0.06735 0.03514,-0.07028 0.03514,-0.363114 z" />
        <path
           id="path5201"
           style="font-style:normal;font-variant:normal;font-weight:normal;font-stretch:normal;font-size:5.9972229px;fill:#eeeeee;fill-opacity:1;stroke:none;stroke-width:0.26458332;stroke-opacity:1"
           d="m 86.160236,69.542563 -0.04685,0.50953 q 0.257693,-0.547598 0.746725,-0.57981 v 1.367531 q -0.325045,0 -0.477318,0.08785 -0.152273,0.08785 -0.187413,0.24598 -0.03514,0.155201 -0.03514,0.720369 v 1.534446 h -1.18305 v -3.885896 z" />
        <path
           id="path5203"
           style="font-style:normal;font-variant:normal;font-weight:normal;font-stretch:normal;font-size:5.9972229px;fill:#eeeeee;fill-opacity:1;stroke:none;stroke-width:0.26458332;stroke-opacity:1"
           d="m 89.808937,69.542563 v 2.992755 q 0,0.606165 -0.02928,0.784793 -0.02635,0.1757 -0.196199,0.371898 -0.169843,0.199127 -0.474389,0.301618 -0.301618,0.10542 -0.761366,0.10542 -0.565168,0 -0.907783,-0.19327 -0.342615,-0.190341 -0.354328,-0.752581 h 1.147906 q 0,0.257693 0.187413,0.257693 0.134703,0 0.178628,-0.07906 0.04393,-0.07906 0.04393,-0.330901 V 72.70809 q -0.152273,0.137631 -0.322116,0.207911 -0.166915,0.07028 -0.3514,0.07028 -0.319188,0 -0.5271,-0.128846 -0.204983,-0.128847 -0.28112,-0.336759 -0.07614,-0.210839 -0.07614,-0.597379 v -1.411456 q 0,-0.553455 0.199126,-0.796506 0.199127,-0.243052 0.606165,-0.243052 0.222553,0 0.40411,0.09078 0.184484,0.09078 0.327973,0.272334 l 0.08492,-0.292833 z m -1.185974,1.030773 q 0,-0.266478 -0.03221,-0.339686 -0.02928,-0.07321 -0.134703,-0.07321 -0.102492,0 -0.146417,0.08492 -0.041,0.08199 -0.041,0.327973 v 1.306036 q 0,0.260621 0.03221,0.339686 0.03221,0.07614 0.134703,0.07614 0.117134,0 0.152274,-0.09371 0.03514,-0.09371 0.03514,-0.424608 z" />
        <path
           id="path5205"
           style="font-style:normal;font-variant:normal;font-weight:normal;font-stretch:normal;font-size:5.9972229px;fill:#eeeeee;fill-opacity:1;stroke:none;stroke-width:0.26458332;stroke-opacity:1"
           d="m 92.915896,71.554327 h -1.531517 v 0.840431 q 0,0.26355 0.03807,0.339687 0.03807,0.07614 0.146417,0.07614 0.134703,0 0.178628,-0.09956 0.04685,-0.102492 0.04685,-0.392396 v -0.512458 h 1.121551 v 0.286976 q 0,0.360185 -0.04685,0.553455 -0.04393,0.19327 -0.21084,0.412894 -0.166915,0.219625 -0.424608,0.330902 -0.254765,0.108348 -0.641305,0.108348 -0.374826,0 -0.661803,-0.108348 -0.286976,-0.108348 -0.448034,-0.295762 -0.15813,-0.190341 -0.219625,-0.415823 -0.06149,-0.22841 -0.06149,-0.661803 v -1.133264 q 0,-0.50953 0.137631,-0.802363 0.137632,-0.295761 0.450963,-0.450963 0.313332,-0.15813 0.72037,-0.15813 0.497816,0 0.819933,0.190342 0.325045,0.187413 0.453891,0.500745 0.131775,0.310403 0.131775,0.875571 z m -1.185974,-0.63252 v -0.284048 q 0,-0.301618 -0.03221,-0.389468 -0.03221,-0.08785 -0.131775,-0.08785 -0.12299,0 -0.152273,0.07614 -0.02928,0.07321 -0.02928,0.401181 v 0.284048 z" />
        <path
           id="path5207"
           style="font-style:normal;font-variant:normal;font-weight:normal;font-stretch:normal;font-size:5.9972229px;fill:#eeeeee;fill-opacity:1;stroke:none;stroke-width:0.26458332;stroke-opacity:1"
           d="m 95.721238,70.784176 h -1.048343 v -0.21084 q 0,-0.269407 -0.03221,-0.339686 -0.02928,-0.07321 -0.152273,-0.07321 -0.09956,0 -0.149345,0.06735 -0.04978,0.06442 -0.04978,0.196198 0,0.178628 0.02343,0.26355 0.02636,0.08199 0.149345,0.181556 0.125918,0.09956 0.512458,0.289905 0.515387,0.251837 0.676445,0.47439 0.161058,0.222553 0.161058,0.647161 0,0.47439 -0.12299,0.717441 -0.12299,0.240124 -0.412895,0.371899 -0.286976,0.128846 -0.694014,0.128846 -0.450963,0 -0.77308,-0.14056 -0.319188,-0.14056 -0.439249,-0.380683 -0.120062,-0.240123 -0.120062,-0.726226 v -0.187413 h 1.048343 v 0.24598 q 0,0.313331 0.03807,0.407038 0.041,0.09371 0.15813,0.09371 0.125918,0 0.1757,-0.06149 0.04978,-0.06442 0.04978,-0.266478 0,-0.278191 -0.06442,-0.348471 -0.06735,-0.07028 -0.688158,-0.415823 -0.521243,-0.292834 -0.635448,-0.530028 -0.114205,-0.240124 -0.114205,-0.568097 0,-0.465604 0.12299,-0.685229 0.12299,-0.222553 0.415823,-0.342615 0.295762,-0.120062 0.68523,-0.120062 0.38654,0 0.655946,0.09956 0.272335,0.09663 0.415823,0.257693 0.146417,0.161058 0.1757,0.29869 0.03221,0.137631 0.03221,0.430464 z" />
        <path
           id="path5209"
           style="font-style:normal;font-variant:normal;font-weight:normal;font-stretch:normal;font-size:5.9972229px;fill:#eeeeee;fill-opacity:1;stroke:none;stroke-width:0.26458332;stroke-opacity:1"
           d="m 97.375746,69.024249 v 0.612021 h 0.319188 v 0.614949 h -0.319188 v 2.079116 q 0,0.383611 0.03807,0.427536 0.041,0.04393 0.330901,0.04393 v 0.626663 h -0.477318 q -0.404109,0 -0.576881,-0.03221 -0.172771,-0.03514 -0.304546,-0.155202 -0.131775,-0.12299 -0.163987,-0.278192 -0.03221,-0.158129 -0.03221,-0.737939 V 70.251219 H 95.935007 V 69.63627 h 0.254764 v -0.612021 z" />
        <path
           id="path5211"
           style="font-style:normal;font-variant:normal;font-weight:normal;font-stretch:normal;font-size:5.9972229px;fill:#eeeeee;fill-opacity:1;stroke:none;stroke-width:0.26458332;stroke-opacity:1"
           d="m 101.68918,71.554327 h -1.53152 v 0.840431 q 0,0.26355 0.0381,0.339687 0.0381,0.07614 0.14641,0.07614 0.13471,0 0.17863,-0.09956 0.0469,-0.102492 0.0469,-0.392396 v -0.512458 h 1.12155 v 0.286976 q 0,0.360185 -0.0469,0.553455 -0.0439,0.19327 -0.21084,0.412894 -0.16691,0.219625 -0.4246,0.330902 -0.25477,0.108348 -0.64131,0.108348 -0.374825,0 -0.661802,-0.108348 -0.286976,-0.108348 -0.448034,-0.295762 -0.15813,-0.190341 -0.219625,-0.415823 -0.06149,-0.22841 -0.06149,-0.661803 v -1.133264 q 0,-0.50953 0.137631,-0.802363 0.137632,-0.295761 0.450963,-0.450963 0.313332,-0.15813 0.720367,-0.15813 0.49781,0 0.81993,0.190342 0.32505,0.187413 0.45389,0.500745 0.13178,0.310403 0.13178,0.875571 z m -1.18598,-0.63252 v -0.284048 q 0,-0.301618 -0.0322,-0.389468 -0.0322,-0.08785 -0.13177,-0.08785 -0.12299,0 -0.15228,0.07614 -0.0293,0.07321 -0.0293,0.401181 v 0.284048 z" />
        <path
           id="path5213"
           style="font-style:normal;font-variant:normal;font-weight:normal;font-stretch:normal;font-size:5.9972229px;fill:#eeeeee;fill-opacity:1;stroke:none;stroke-width:0.26458332;stroke-opacity:1"
           d="m 103.29683,68.68749 v 4.740969 h -1.21818 V 68.68749 Z" />
        <path
           id="path5215"
           style="font-style:normal;font-variant:normal;font-weight:normal;font-stretch:normal;font-size:5.9972229px;fill:#eeeeee;fill-opacity:1;stroke:none;stroke-width:0.26458332;stroke-opacity:1"
           d="m 106.39793,71.554327 h -1.53151 v 0.840431 q 0,0.26355 0.0381,0.339687 0.0381,0.07614 0.14641,0.07614 0.13471,0 0.17863,-0.09956 0.0469,-0.102492 0.0469,-0.392396 v -0.512458 h 1.12155 v 0.286976 q 0,0.360185 -0.0469,0.553455 -0.0439,0.19327 -0.21084,0.412894 -0.16691,0.219625 -0.42461,0.330902 -0.25476,0.108348 -0.6413,0.108348 -0.37483,0 -0.6618,-0.108348 -0.28698,-0.108348 -0.44804,-0.295762 -0.15813,-0.190341 -0.21962,-0.415823 -0.0615,-0.22841 -0.0615,-0.661803 v -1.133264 q 0,-0.50953 0.13763,-0.802363 0.13763,-0.295761 0.45097,-0.450963 0.31333,-0.15813 0.72037,-0.15813 0.49781,0 0.81993,0.190342 0.32504,0.187413 0.45389,0.500745 0.13177,0.310403 0.13177,0.875571 z m -1.18597,-0.63252 v -0.284048 q 0,-0.301618 -0.0322,-0.389468 -0.0322,-0.08785 -0.13178,-0.08785 -0.12299,0 -0.15227,0.07614 -0.0293,0.07321 -0.0293,0.401181 v 0.284048 z" />
        <path
           id="path5217"
           style="font-style:normal;font-variant:normal;font-weight:normal;font-stretch:normal;font-size:5.9972229px;fill:#eeeeee;fill-opacity:1;stroke:none;stroke-width:0.26458332;stroke-opacity:1"
           d="m 109.4024,71.009657 h -1.11569 v -0.448034 q 0,-0.234267 -0.0381,-0.31626 -0.0381,-0.08492 -0.14056,-0.08492 -0.10249,0 -0.13763,0.07321 -0.0351,0.07321 -0.0351,0.327973 v 1.833135 q 0,0.207912 0.0527,0.313332 0.0527,0.102491 0.1552,0.102491 0.12006,0 0.16106,-0.108348 0.0439,-0.108348 0.0439,-0.409966 v -0.46268 h 1.0542 q -0.003,0.465605 -0.0351,0.699871 -0.0293,0.231339 -0.1962,0.477318 -0.16398,0.243052 -0.43046,0.36897 -0.26648,0.12299 -0.65887,0.12299 -0.50075,0 -0.79358,-0.169843 -0.29284,-0.172772 -0.41583,-0.480246 -0.12006,-0.310404 -0.12006,-0.8785 v -1.103981 q 0,-0.494888 0.0996,-0.746724 0.0996,-0.251837 0.4246,-0.448035 0.32505,-0.199127 0.79065,-0.199127 0.46268,0 0.79065,0.196199 0.32798,0.196198 0.43632,0.494888 0.10835,0.298689 0.10835,0.846287 z" />
        <path
           id="path5219"
           style="font-style:normal;font-variant:normal;font-weight:normal;font-stretch:normal;font-size:5.9972229px;fill:#eeeeee;fill-opacity:1;stroke:none;stroke-width:0.26458332;stroke-opacity:1"
           d="m 110.99834,69.024249 v 0.612021 h 0.31919 v 0.614949 h -0.31919 v 2.079116 q 0,0.383611 0.0381,0.427536 0.041,0.04393 0.3309,0.04393 v 0.626663 H 110.89 q -0.40411,0 -0.57689,-0.03221 -0.17277,-0.03514 -0.30454,-0.155202 -0.13178,-0.12299 -0.16399,-0.278192 -0.0322,-0.158129 -0.0322,-0.737939 v -1.973696 h -0.25476 V 69.63627 h 0.25476 v -0.612021 z" />
        <path
           id="path5221"
           style="font-style:normal;font-variant:normal;font-weight:normal;font-stretch:normal;font-size:5.9972229px;fill:#eeeeee;fill-opacity:1;stroke:none;stroke-width:0.26458332;stroke-opacity:1"
           d="m 112.7612,69.542563 -0.0469,0.50953 q 0.25769,-0.547598 0.74672,-0.57981 v 1.367531 q -0.32504,0 -0.47732,0.08785 -0.15227,0.08785 -0.18741,0.24598 -0.0351,0.155201 -0.0351,0.720369 v 1.534446 h -1.18305 v -3.885896 z" />
        <path
           id="path5223"
           style="font-style:normal;font-variant:normal;font-weight:normal;font-stretch:normal;font-size:5.9972229px;fill:#eeeeee;fill-opacity:1;stroke:none;stroke-width:0.26458332;stroke-opacity:1"
           d="m 116.39819,70.907166 v 0.951707 q 0,0.524172 -0.0527,0.770152 -0.0527,0.243051 -0.22548,0.456819 -0.17278,0.21084 -0.44511,0.313332 -0.26941,0.09956 -0.62081,0.09956 -0.39239,0 -0.66473,-0.08492 -0.27233,-0.08785 -0.42461,-0.260622 -0.14934,-0.1757 -0.21376,-0.42168 -0.0644,-0.248908 -0.0644,-0.743796 v -0.995633 q 0,-0.541741 0.11714,-0.846287 0.11713,-0.304547 0.42168,-0.489032 0.30454,-0.184485 0.77893,-0.184485 0.39825,0 0.6823,0.120062 0.28698,0.117133 0.44218,0.307475 0.1552,0.190341 0.21084,0.392396 0.0586,0.202055 0.0586,0.61495 z m -1.18305,-0.292833 q 0,-0.29869 -0.0322,-0.374827 -0.0322,-0.07906 -0.13763,-0.07906 -0.10542,0 -0.14056,0.07906 -0.0351,0.07614 -0.0351,0.374827 v 1.75407 q 0,0.275263 0.0351,0.360185 0.0351,0.08199 0.13763,0.08199 0.10542,0 0.13763,-0.07614 0.0351,-0.07614 0.0351,-0.327974 z" />
        <path
           id="path5225"
           style="font-style:normal;font-variant:normal;font-weight:normal;font-stretch:normal;font-size:5.9972229px;fill:#eeeeee;fill-opacity:1;stroke:none;stroke-width:0.26458332;stroke-opacity:1"
           d="m 117.99413,69.542563 -0.0205,0.357257 q 0.12884,-0.213768 0.31333,-0.319188 0.18741,-0.108349 0.43046,-0.108349 0.30455,0 0.49782,0.143489 0.19327,0.143488 0.24891,0.363113 0.0556,0.216696 0.0556,0.726226 v 2.723348 h -1.18305 v -2.691136 q 0,-0.401182 -0.0264,-0.489032 -0.0264,-0.08785 -0.14642,-0.08785 -0.12592,0 -0.15813,0.102492 -0.0322,0.09956 -0.0322,0.538813 v 2.626713 h -1.18305 v -3.885896 z" />
        <path
           id="path5227"
           style="font-style:normal;font-variant:normal;font-weight:normal;font-stretch:normal;font-size:5.9972229px;fill:#eeeeee;fill-opacity:1;stroke:none;stroke-width:0.26458332;stroke-opacity:1"
           d="m 121.14794,68.68749 v 0.617878 h -1.21819 V 68.68749 Z m 0,0.855073 v 3.885896 h -1.21819 v -3.885896 z" />
        <path
           id="path5229"
           style="font-style:normal;font-variant:normal;font-weight:normal;font-stretch:normal;font-size:5.9972229px;fill:#eeeeee;fill-opacity:1;stroke:none;stroke-width:0.26458332;stroke-opacity:1"
           d="m 124.18462,71.009657 h -1.11569 v -0.448034 q 0,-0.234267 -0.0381,-0.31626 -0.0381,-0.08492 -0.14056,-0.08492 -0.10249,0 -0.13763,0.07321 -0.0351,0.07321 -0.0351,0.327973 v 1.833135 q 0,0.207912 0.0527,0.313332 0.0527,0.102491 0.1552,0.102491 0.12006,0 0.16106,-0.108348 0.0439,-0.108348 0.0439,-0.409966 v -0.46268 h 1.0542 q -0.003,0.465605 -0.0351,0.699871 -0.0293,0.231339 -0.1962,0.477318 -0.16398,0.243052 -0.43046,0.36897 -0.26648,0.12299 -0.65888,0.12299 -0.50074,0 -0.79358,-0.169843 -0.29283,-0.172772 -0.41582,-0.480246 -0.12006,-0.310404 -0.12006,-0.8785 v -1.103981 q 0,-0.494888 0.0996,-0.746724 0.0996,-0.251837 0.42461,-0.448035 0.32505,-0.199127 0.79065,-0.199127 0.46268,0 0.79065,0.196199 0.32797,0.196198 0.43632,0.494888 0.10835,0.298689 0.10835,0.846287 z" />
        <path
           id="path5231"
           style="font-style:normal;font-variant:normal;font-weight:normal;font-stretch:normal;font-size:5.9972229px;fill:#eeeeee;fill-opacity:1;stroke:none;stroke-width:0.26458332;stroke-opacity:1"
           d="m 126.94896,70.784176 h -1.04834 v -0.21084 q 0,-0.269407 -0.0322,-0.339686 -0.0293,-0.07321 -0.15227,-0.07321 -0.0996,0 -0.14935,0.06735 -0.0498,0.06442 -0.0498,0.196198 0,0.178628 0.0234,0.26355 0.0263,0.08199 0.14934,0.181556 0.12592,0.09956 0.51246,0.289905 0.51539,0.251837 0.67644,0.47439 0.16106,0.222553 0.16106,0.647161 0,0.47439 -0.12299,0.717441 -0.12299,0.240124 -0.41289,0.371899 -0.28698,0.128846 -0.69402,0.128846 -0.45096,0 -0.77308,-0.14056 -0.31918,-0.14056 -0.43925,-0.380683 -0.12006,-0.240123 -0.12006,-0.726226 v -0.187413 h 1.04834 v 0.24598 q 0,0.313331 0.0381,0.407038 0.041,0.09371 0.15813,0.09371 0.12592,0 0.1757,-0.06149 0.0498,-0.06442 0.0498,-0.266478 0,-0.278191 -0.0644,-0.348471 -0.0673,-0.07028 -0.68816,-0.415823 -0.52124,-0.292834 -0.63544,-0.530028 -0.11421,-0.240124 -0.11421,-0.568097 0,-0.465604 0.12299,-0.685229 0.12299,-0.222553 0.41582,-0.342615 0.29576,-0.120062 0.68523,-0.120062 0.38654,0 0.65595,0.09956 0.27233,0.09663 0.41582,0.257693 0.14642,0.161058 0.1757,0.29869 0.0322,0.137631 0.0322,0.430464 z" />
        <path
           id="path5233"
           style="font-style:normal;font-variant:normal;font-weight:normal;font-stretch:normal;font-size:5.9972229px;fill:#eeeeee;fill-opacity:1;stroke:none;stroke-width:0.26458332;stroke-opacity:1"
           d="m 130.82608,70.784176 h -1.04835 v -0.21084 q 0,-0.269407 -0.0322,-0.339686 -0.0293,-0.07321 -0.15227,-0.07321 -0.0996,0 -0.14935,0.06735 -0.0498,0.06442 -0.0498,0.196198 0,0.178628 0.0234,0.26355 0.0264,0.08199 0.14934,0.181556 0.12592,0.09956 0.51246,0.289905 0.51539,0.251837 0.67645,0.47439 0.16106,0.222553 0.16106,0.647161 0,0.47439 -0.12299,0.717441 -0.12299,0.240124 -0.4129,0.371899 -0.28698,0.128846 -0.69401,0.128846 -0.45097,0 -0.77308,-0.14056 -0.31919,-0.14056 -0.43925,-0.380683 -0.12006,-0.240123 -0.12006,-0.726226 v -0.187413 h 1.04834 v 0.24598 q 0,0.313331 0.0381,0.407038 0.041,0.09371 0.15813,0.09371 0.12591,0 0.1757,-0.06149 0.0498,-0.06442 0.0498,-0.266478 0,-0.278191 -0.0644,-0.348471 -0.0674,-0.07028 -0.68815,-0.415823 -0.52125,-0.292834 -0.63545,-0.530028 -0.11421,-0.240124 -0.11421,-0.568097 0,-0.465604 0.12299,-0.685229 0.12299,-0.222553 0.41583,-0.342615 0.29576,-0.120062 0.68523,-0.120062 0.38654,0 0.65594,0.09956 0.27234,0.09663 0.41583,0.257693 0.14641,0.161058 0.1757,0.29869 0.0322,0.137631 0.0322,0.430464 z" />
        <path
           id="path5235"
           style="font-style:normal;font-variant:normal;font-weight:normal;font-stretch:normal;font-size:5.9972229px;fill:#eeeeee;fill-opacity:1;stroke:none;stroke-width:0.26458332;stroke-opacity:1"
           d="m 132.48058,69.024249 v 0.612021 h 0.31919 v 0.614949 h -0.31919 v 2.079116 q 0,0.383611 0.0381,0.427536 0.041,0.04393 0.3309,0.04393 v 0.626663 h -0.47732 q -0.4041,0 -0.57688,-0.03221 -0.17277,-0.03514 -0.30454,-0.155202 -0.13178,-0.12299 -0.16399,-0.278192 -0.0322,-0.158129 -0.0322,-0.737939 v -1.973696 h -0.25477 V 69.63627 h 0.25477 v -0.612021 z" />
        <path
           id="path5237"
           style="font-style:normal;font-variant:normal;font-weight:normal;font-stretch:normal;font-size:5.9972229px;fill:#eeeeee;fill-opacity:1;stroke:none;stroke-width:0.26458332;stroke-opacity:1"
           d="m 135.73689,70.907166 v 0.951707 q 0,0.524172 -0.0527,0.770152 -0.0527,0.243051 -0.22548,0.456819 -0.17278,0.21084 -0.44511,0.313332 -0.26941,0.09956 -0.62081,0.09956 -0.39239,0 -0.66473,-0.08492 -0.27233,-0.08785 -0.42461,-0.260622 -0.14934,-0.1757 -0.21376,-0.42168 -0.0644,-0.248908 -0.0644,-0.743796 v -0.995633 q 0,-0.541741 0.11714,-0.846287 0.11713,-0.304547 0.42168,-0.489032 0.30454,-0.184485 0.77893,-0.184485 0.39825,0 0.6823,0.120062 0.28698,0.117133 0.44218,0.307475 0.1552,0.190341 0.21084,0.392396 0.0586,0.202055 0.0586,0.61495 z m -1.18305,-0.292833 q 0,-0.29869 -0.0322,-0.374827 -0.0322,-0.07906 -0.13763,-0.07906 -0.10542,0 -0.14056,0.07906 -0.0351,0.07614 -0.0351,0.374827 v 1.75407 q 0,0.275263 0.0351,0.360185 0.0351,0.08199 0.13763,0.08199 0.10542,0 0.13763,-0.07614 0.0351,-0.07614 0.0351,-0.327974 z" />
        <path
           id="path5239"
           style="font-style:normal;font-variant:normal;font-weight:normal;font-stretch:normal;font-size:5.9972229px;fill:#eeeeee;fill-opacity:1;stroke:none;stroke-width:0.26458332;stroke-opacity:1"
           d="m 137.31233,69.542563 -0.0469,0.50953 q 0.25769,-0.547598 0.74672,-0.57981 v 1.367531 q -0.32504,0 -0.47732,0.08785 -0.15227,0.08785 -0.18741,0.24598 -0.0351,0.155201 -0.0351,0.720369 v 1.534446 h -1.18304 v -3.885896 z" />
        <path
           id="path5241"
           style="font-style:normal;font-variant:normal;font-weight:normal;font-stretch:normal;font-size:5.9972229px;fill:#eeeeee;fill-opacity:1;stroke:none;stroke-width:0.26458332;stroke-opacity:1"
           d="m 140.95225,71.554327 h -1.53152 v 0.840431 q 0,0.26355 0.0381,0.339687 0.0381,0.07614 0.14642,0.07614 0.1347,0 0.17862,-0.09956 0.0469,-0.102492 0.0469,-0.392396 v -0.512458 h 1.12155 v 0.286976 q 0,0.360185 -0.0469,0.553455 -0.0439,0.19327 -0.21083,0.412894 -0.16692,0.219625 -0.42461,0.330902 -0.25477,0.108348 -0.64131,0.108348 -0.37482,0 -0.6618,-0.108348 -0.28698,-0.108348 -0.44804,-0.295762 -0.15813,-0.190341 -0.21962,-0.415823 -0.0615,-0.22841 -0.0615,-0.661803 v -1.133264 q 0,-0.50953 0.13764,-0.802363 0.13763,-0.295761 0.45096,-0.450963 0.31333,-0.15813 0.72037,-0.15813 0.49782,0 0.81993,0.190342 0.32505,0.187413 0.45389,0.500745 0.13178,0.310403 0.13178,0.875571 z m -1.18598,-0.63252 v -0.284048 q 0,-0.301618 -0.0322,-0.389468 -0.0322,-0.08785 -0.13177,-0.08785 -0.12299,0 -0.15228,0.07614 -0.0293,0.07321 -0.0293,0.401181 v 0.284048 z" />
      </g>
      <path
         id="path5468"
         style="fill:#ffac1f;fill-opacity:1;stroke:#053b66;stroke-width:0.26458332px;stroke-linecap:butt;stroke-linejoin:miter;stroke-opacity:1"
         d="m 61.023004,51.021464 c 1.9149,-0.406109 4.01208,-0.557021 6.548104,-0.09355 5.766663,1.856719 7.163944,5.093243 8.278672,8.418994 l -5.425569,0.514494 c -0.561266,-1.746161 -1.870889,-3.055782 -3.928864,-3.928863 -0.987177,-0.250514 -1.977122,-0.49872 -3.694999,-0.140317 -2.815495,0.676933 -3.864783,2.392811 -4.583673,4.303042 v -2e-6 l 2.057974,-0.04677 -3.835316,7.623864 -5.559242,-7.593627 2.121487,0.0019 c 1.022665,-3.675576 2.723934,-7.400071 8.021426,-9.059148 z" />
      <path
         id="path5468-3"
         style="fill:#6cb2e7;fill-opacity:1;stroke:#073d69;stroke-width:0.26458332px;stroke-linecap:butt;stroke-linejoin:miter;stroke-opacity:1"
         d="m 68.181891,74.34718 c -1.9149,0.406109 -4.01208,0.557021 -6.548104,0.09355 -5.766663,-1.856719 -7.163944,-5.093243 -8.278672,-8.418994 l 1.71755,-0.162871 1.366668,1.813491 1.156301,-2.052738 1.18505,-0.112376 c 0.561266,1.746161 1.870889,3.055782 3.928864,3.928863 0.987177,0.250514 1.977122,0.49872 3.694999,0.140317 2.815495,-0.676933 3.864783,-2.392811 4.583673,-4.303042 v 2e-6 l -2.057974,0.04677 3.835316,-7.623864 5.559242,7.593627 -2.121487,-0.0019 c -1.022665,3.675576 -2.723934,7.400071 -8.021426,9.059148 z" />
    </g>
  </g>
</svg>
