<svg version="1.1" xmlns="http://www.w3.org/2000/svg" x="0px" y="0px" width="350px"
	 height="85px" viewBox="0 0 350 85" enable-background="new 0 0 350 85">
<g id="logo">
	<path fill-rule="evenodd" clip-rule="evenodd" fill="#02B2E7" d="M37.482,10.095L7,79.5h33l14.062-32.018L37.482,10.095z"/>
	<path fill-rule="evenodd" clip-rule="evenodd" fill="#EE3524" d="M38.5,5.5h33l32.5,74H71L38.5,5.5z"/>
</g>
<g id="Shadows">
	<polygon opacity="0.05" fill-rule="evenodd" clip-rule="evenodd" points="40,79.5 7,79.5 47.095,31.772 54.062,47.482 	"/>
	<polygon opacity="0.05" fill-rule="evenodd" clip-rule="evenodd" points="40,79.5 37.482,10.095 54.062,47.482 	"/>
	<polygon opacity="0.05" fill-rule="evenodd" clip-rule="evenodd" points="71,79.5 38.5,5.5 104,79.5 	"/>
	<polygon opacity="0.05" fill-rule="evenodd" clip-rule="evenodd" points="71,79.5 71.5,5.5 104,79.5 	"/>
	<polygon opacity="0.05" fill-rule="evenodd" clip-rule="evenodd" points="71,79.5 49.028,29.472 71.5,5.5 104,79.5 	"/>
</g>
<g id="argento">
	<g>
		<path fill="#26323C" d="M137.323,53.264c0,2.982,0.142,5.893,0.568,8.236h-5.68l-0.497-4.331H131.5
			c-1.917,2.698-5.609,5.112-10.508,5.112c-6.958,0-10.508-4.899-10.508-9.869c0-8.307,7.384-12.851,20.661-12.78v-0.71
			c0-2.84-0.781-7.952-7.81-7.952c-3.195,0-6.532,0.994-8.946,2.556l-1.42-4.118c2.84-1.846,6.958-3.053,11.289-3.053
			c10.508,0,13.064,7.171,13.064,14.058V53.264z M131.288,43.963c-6.816-0.142-14.555,1.065-14.555,7.739
			c0,4.047,2.698,5.964,5.893,5.964c4.473,0,7.313-2.84,8.307-5.751c0.213-0.639,0.355-1.349,0.355-1.988V43.963z"/>
		<path fill="#26323C" d="M147.405,37.857c0-4.047-0.071-7.526-0.284-10.721h5.467l0.213,6.745h0.284
			c1.562-4.615,5.325-7.526,9.514-7.526c0.71,0,1.207,0.071,1.775,0.213v5.893c-0.639-0.142-1.278-0.213-2.13-0.213
			c-4.402,0-7.526,3.337-8.378,8.023c-0.142,0.852-0.284,1.846-0.284,2.911V61.5h-6.177V37.857z"/>
		<path fill="#26323C" d="M199.376,56.53c0,7.881-1.562,12.708-4.899,15.69c-3.336,3.124-8.164,4.118-12.495,4.118
			c-4.118,0-8.662-0.994-11.431-2.84l1.562-4.757c2.272,1.42,5.822,2.698,10.082,2.698c6.39,0,11.076-3.337,11.076-11.999v-3.833
			h-0.142c-1.918,3.195-5.609,5.75-10.935,5.75c-8.52,0-14.626-7.242-14.626-16.755c0-11.645,7.597-18.247,15.478-18.247
			c5.964,0,9.23,3.124,10.721,5.964h0.142l0.284-5.183h5.467c-0.143,2.484-0.284,5.254-0.284,9.442V56.53z M193.199,40.697
			c0-1.065-0.07-1.988-0.355-2.84c-1.135-3.621-4.188-6.603-8.732-6.603c-5.964,0-10.224,5.041-10.224,12.993
			c0,6.745,3.408,12.354,10.153,12.354c3.834,0,7.313-2.414,8.662-6.39c0.354-1.064,0.497-2.271,0.497-3.337V40.697z"/>
		<path fill="#26323C" d="M213.221,45.454c0.143,8.449,5.538,11.928,11.786,11.928c4.474,0,7.171-0.781,9.514-1.774l1.065,4.473
			c-2.201,0.994-5.965,2.201-11.432,2.201c-10.578,0-16.897-7.029-16.897-17.395s6.106-18.531,16.117-18.531
			c11.218,0,14.2,9.869,14.2,16.188c0,1.278-0.143,2.272-0.213,2.911H213.221z M231.539,40.981
			c0.07-3.976-1.633-10.153-8.662-10.153c-6.318,0-9.088,5.822-9.585,10.153H231.539z"/>
		<path fill="#26323C" d="M245.313,36.438c0-3.55-0.071-6.461-0.284-9.301h5.538l0.355,5.68h0.142
			c1.704-3.266,5.68-6.461,11.36-6.461c4.756,0,12.141,2.84,12.141,14.626V61.5h-6.248V41.691c0-5.538-2.06-10.153-7.952-10.153
			c-4.118,0-7.313,2.911-8.378,6.39c-0.284,0.781-0.426,1.846-0.426,2.911V61.5h-6.248V36.438z"/>
		<path fill="#26323C" d="M291.959,18.9v8.236h8.945v4.757h-8.945v18.53c0,4.26,1.207,6.674,4.686,6.674
			c1.704,0,2.698-0.142,3.621-0.426l0.284,4.686c-1.207,0.497-3.124,0.923-5.538,0.923c-2.91,0-5.254-0.994-6.744-2.698
			c-1.775-1.846-2.414-4.899-2.414-8.946V31.894h-5.326v-4.757h5.326v-6.319L291.959,18.9z"/>
		<path fill="#26323C" d="M338.605,44.034c0,12.709-8.805,18.247-17.111,18.247c-9.301,0-16.472-6.816-16.472-17.678
			c0-11.502,7.526-18.247,17.04-18.247C331.932,26.355,338.605,33.526,338.605,44.034z M311.342,44.389
			c0,7.526,4.33,13.206,10.437,13.206c5.964,0,10.437-5.608,10.437-13.348c0-5.822-2.91-13.206-10.295-13.206
			C314.537,31.041,311.342,37.857,311.342,44.389z"/>
	</g>
</g>
</svg>
